<?xml version="1.0" encoding="utf-8"?>
<!-- Generator: Adobe Illustrator 22.0.1, SVG Export Plug-In . SVG Version: 6.00 Build 0)  -->
<svg version="1.1" id="Jim_-_huydesignvn_x40_gmail.com"
     xmlns="http://www.w3.org/2000/svg" xmlns:xlink="http://www.w3.org/1999/xlink" x="0px" y="0px"
     viewBox="0 0 3000 2000"
     style="enable-background:new 0 0 3000 2000;" xml:space="preserve">
<style type="text/css">
	.st0{fill:#FFFFFF;}
	.st1{fill:#1E1E1E;}
</style>
    <g>
	<g>
		<circle class="st0" cx="1498.3" cy="1000" r="720.8"/>
        <path class="st1" d="M1498.3,1731.1c-98.7,0-194.5-19.3-284.6-57.5c-87.1-36.8-165.3-89.5-232.4-156.7
			c-67.1-67.1-119.9-145.3-156.7-232.4c-38.1-90.1-57.5-185.9-57.5-284.6s19.3-194.5,57.5-284.6c36.8-87.1,89.5-165.3,156.7-232.4
			c67.1-67.1,145.3-119.9,232.4-156.7c90.1-38.1,185.9-57.5,284.6-57.5c98.7,0,194.5,19.3,284.6,57.5
			c87.1,36.8,165.3,89.5,232.4,156.7c67.1,67.1,119.9,145.3,156.7,232.4c38.1,90.1,57.5,185.9,57.5,284.6s-19.3,194.5-57.5,284.6
			c-36.8,87.1-89.5,165.3-156.7,232.4c-67.1,67.1-145.3,119.9-232.4,156.7C1692.8,1711.8,1597,1731.1,1498.3,1731.1z M1498.3,289.5
			c-391.8,0-710.5,318.8-710.5,710.5s318.8,710.5,710.5,710.5s710.5-318.8,710.5-710.5S1890.1,289.5,1498.3,289.5z"/>
	</g>
        <g>
		<g>
			<g>
				<path class="st1" d="M821.5,867c2.6-12.2,5.3-26.6,6.6-41.2c2.8-3.3,5.3-6.3,7.7-9c0.9-1.1,1.4-1.7,1.8-2.2
					c0.9-1.1,1.4-1.7,6.3-6.9c47.4-30.7,228.4-178.6,246.4-197.8c29.5-31.4,34.3-41.5,38.5-50.4c2.8-5.9,5.5-11.5,15.8-23.3
					c18.1-20.7,24.3-26.2,44.9-38.9c17.9-11.1,31.5-20.1,44.6-34.8c3.7-4.2,6.6-8.1,9.4-11.8c2.3-3.1,4.5-6,7-9
					c4.9-5.8,8.8-10.1,14.2-13.2c1.4-0.8,2.6-1.2,3.6-1.2c1.3,0,2.8,0.6,4.6,2c3.4,2.5,6.2,5.7,8.5,8.5
					c12.9,15.7,24.9,32.7,36.4,49.2c4.1,5.9,8.3,11.8,12.5,17.7c5.1,7.1,11.4,15.9,18.4,23.2c1.5,1.6,3.6,3.4,6.3,3.4c2,0,4-1,6-3.2
					c8.8-9.6,19.8-22.6,26.8-38.9c8.6-19.8,17.9-35.4,35.5-47.1c7.9-5.2,13.2-10.5,17.2-17.2c3.4-5.6,6.2-6.4,8.2-6.4
					c1.7,0,3.6,0.6,6,1.7c4.1,2,7.4,5,10.9,8.2c1,0.9,2,1.8,3,2.7c1.2,1.1,2.4,2.2,3.6,3.4c2.6,2.5,5.2,5,8.4,7
					c2.5,1.5,4.7,2.3,6.9,2.3c4.7,0,7.9-3.4,9.9-6c1.6-2,3.1-4.8,4.7-8.8c3.3-8,5.8-17.2,8.1-25.3l0.1-0.3c0.9-3.1,1.7-6.4,2.5-9.7
					c2.2-8.5,4.4-17.3,7.4-24.3c3.5-8.2,6.1-9.4,7.4-9.4c1.1,0,3.6,0.9,7.6,6.8c11,16.3,20.3,35.2,28.6,53.2
					c3.9,8.4,7.6,17.4,11.1,26.1c3.8,9.3,7.7,19,12,28c10.4,22,23.1,45,39.9,72.6c10.6,17.4,22.6,37.1,36.4,53
					c5.3,6.2,9.1,9.5,13.4,9.5c4.7,0,8.7-4,13.8-9.7c13.2-14.6,25.1-26.2,36.6-35.5c16.8-13.6,29.5-28.4,38.6-45.1
					c2.2-4,4.6-8,7.6-10.8c3.1-2.9,5.7-4.3,8.2-4.3c2.5,0,5.2,1.3,8.5,4.1c1.6,1.3,3.2,3.1,4.7,4.9c1.2,1.3,2.4,2.7,3.6,3.9
					c5.3,5.2,10.1,7.6,15.3,7.6c3.4,0,6.9-1,10.7-3.2c5.3-3,9.1-7.3,12.1-11.2c9.8-12.6,18.3-25.5,25.3-38.2c3.4-6.1,6.1-9,8.7-9
					c2.5,0,6.1,2.5,11.1,7.9c8.7,9.3,16.3,20.8,22.6,30.8c6.9,10.9,13.6,19.3,24,29.9c13.3,13.6,21.8,26.4,30.3,45.6
					c0.4,0.9,0.7,1.7,1.1,2.4c2.6,5.9,4.1,9.4,11.7,18.7c27.5,33.6,42.9,54.3,70.9,92c4.5,6.1,9.3,12.6,14.6,19.6
					c17,22.8,84.5,106.1,109.7,133.1c6.9,7.4,7.5,9.4,8.5,12.5c0.3,1,0.6,2,1.2,3.4c1.6,4,1.6,6.2,1.1,6.9c-0.3,0.5-1.3,0.5-1.8,0.5
					c-0.5,0-1.1-0.1-1.7-0.2c-1.1-0.2-1.9-0.3-2.6-0.3c-1.5-0.1-1.5-0.1-7.8-5.4l-0.8-0.6c-32.6-26.8-96.3-110.3-116-137.5
					c-28.7-39.5-47.4-64.6-70-92.3c-21.1-25.9-25.2-32.9-36.9-56.7c-5.8-11.9-8.9-16.3-15.4-23.4c-11.8-13.1-22-25.1-32.9-41.2
					c-1.1-1.6-2.2-3.2-3.2-4.8c-2.1-3.2-4.1-6.1-6.2-9c-1.8-2.5-3.6-4.7-6.4-4.7c-2.4,0-4.3,1.8-6,3.8c-3.3,3.8-6.5,8.2-9.6,12.5
					c-1.5,2.1-3,4.1-4.4,6.1c-3.9,5.2-6.3,11.5-7,18.6c-1.7,17.2-0.2,34.2,1.8,49.9c0.4,3.1,0.9,6.2,1.3,9.2c1.1,7.4,2.2,15,2.2,22
					c-0.1,9.2-2.9,14.2-10.1,17.6c-1.5,0.7-3,1-4.7,1.3c-1,0.2-2,0.3-3.1,0.6c-18.4,4.4-29.1,13.6-35.7,30.8c-0.5,1.2-1,2.4-1.6,3.6
					c-1,2.1-2.2,4.5-3,7.8c-0.4,1.5-0.7,2.9-1.1,4.1c-2.4,8.7-3.1,13,3,25.2c18.2,36.5,49.4,69.3,72.4,90.3
					c10,9.1,22.1,18.8,33.9,28.1c6,4.7,11.6,9.1,16.7,13.4c6.7,5.5,10.3,10.2,14.2,16.4c2.7,4.3,2.3,6.7,0.9,9.1
					c-1,1.6-1.4,1.6-1.6,1.6c-0.8,0-2.3-0.6-3.3-1.1c-5.6-2.5-8.9-5.2-15.5-10.4l-0.2-0.2c-16.6-13.2-34.7-28.7-48.5-41.6
					c-31.3-29.2-61.1-65.9-81.7-100.9c-7.4-12.6-9.4-15.5-16.2-23.1c-10.9-12.3-18.2-21.6-25.8-35.8c-4.5-8.4-5.1-16.7-1.9-27.7
					c1.8-6.1,5.8-11.3,9.3-15.9c11.9-15.6,19.2-31.5,22.2-48.8c0.1-0.8,0.2-1.7,0.2-2.4c0-0.2,0.1-0.5,0.1-0.7
					c0.3-1.3,0.8-4.1-1.6-5.6c-0.6-0.4-1.4-0.6-2.1-0.6c-1.9,0-3,1.4-3.7,2.2c-0.1,0.2-0.3,0.4-0.4,0.5c-3.1,2.7-5.8,5.6-8.7,8.6
					l-1.3,1.4c-9.2,9.6-18.9,18.7-28.4,27.4c-11.3,10.5-23,21.3-33.9,33.4c-12.4,13.7-28,32.3-37.9,54.9c-0.7,1.6-1.4,3.2-2.1,4.9
					c-1.4,3.3-2.9,6.8-4.4,9.9c-6.1,13.1-14.3,27.9-29.1,38.4c-8.8,6.3-15.6,13.9-22.2,24.6c-6.6,10.7-13.9,21.7-25,29
					c-4,2.6-6.7,3.7-9.9,3.7c-1,0-2-0.1-3-0.3c-1.5-0.3-2.7-1.1-3.3-2.2c-1-1.7-1-4.2-0.1-6.8c1.1-3.1,3.4-6.3,6.5-8.8
					c9.8-8.1,18.2-17.4,26.4-29.4c6.4-9.4,14-17.3,24.7-25.6c7.8-6.1,13.9-13.4,19.2-23.1c3.7-6.9,7-14.4,10.2-21.8l1.3-2.9
					c4.6-10.5,9.6-19.8,15.1-27.6c6-8.6,4.8-13.4-0.2-20.8c-0.5-0.8-1.1-1.4-1.7-2.1l-0.5-0.5c-16.6-19.1-30.3-38.1-43-59.9
					c-14-23.9-30.1-52.4-42.5-82.4c-1-2.4-2-4.9-3-7.3c-5.4-13-10.9-26.4-17-38.7c-0.3-0.6-0.5-1.3-0.8-2.2
					c-0.9-2.7-2.2-6.7-6.2-6.7c-0.6,0-1.1,0.1-1.7,0.3c-3.9,1.2-3.7,6-3.6,9.6c0,0.9,0.1,1.7,0,2.5c-0.5,11.9-1.7,29.7-7.1,46.2
					c-4.4,13.8-4.7,26.2-0.8,39.1c2.2,7.2,1.2,10.4-4.3,15.2c-1.2,1.1-2.7,1.8-4.2,2.6c-0.5,0.3-1,0.5-1.5,0.8
					c-3.5,1.9-6.9,3.2-10.6,4.5c-2,0.7-4.1,1.5-6.3,2.4c-6.8,2.8-11.3,7.8-13.9,15.3c-1.2,3.5-2.2,7.4-3.1,11.2
					c-0.7,2.7-1.3,5.2-2,7.6c-1.6,5.4-3.3,10.6-6.7,14.5c-1.8,2-3.3,3-4.7,3c-1.5,0-3.1-1.2-4.9-3.5c-2.9-3.6-5.2-8.4-7.1-14.7
					c-5.5-18-11-37.3-12.8-57.5c0-0.2,0-0.5,0-0.8c-0.1-1.6-0.2-4.9-3.5-6c-0.4-0.1-0.8-0.2-1.2-0.2c-2.5,0-3.7,2.3-4.4,3.5
					l-0.1,0.2c-4.6,8.6-11.5,13.9-22.3,17.2c-10.4,3.2-18.3,7-26.4,12.6c-9.8,6.8-18.1,11.3-26.8,14.8c-3.9,1.6-6.7,3.8-9.3,7.5
					c-5.6,7.9-10.7,16.6-15.6,25l-2.7,4.6c-7.9,13.4-15.3,26.1-25.7,36.9c-3.3,3.5-5.6,5.7-9.5,6.6c-0.6,0.1-1.1,0.2-1.6,0.2
					c-1.1,0-1.9-0.3-2.6-1.1c-1.3-1.4-1.8-4.2-1.5-7.3c0.2-2,1.1-4.1,2.2-5.5c12-15,22.3-31.5,32.2-47.4c3.9-6.2,7.9-12.7,12-18.9
					c3.6-5.6,2.1-10,0.1-12.8l-0.2-0.3c-10.2-14.3-20.8-29.1-33-42.2c-1.3-1.4-3-2.9-5.2-2.9c-1.8,0-3.4,0.9-4.5,1.8
					c-12,8.6-23.4,20-35.7,35.7c-4.8,6.1-8.8,12.7-12.6,18.9c-2.3,3.7-4.4,7.2-6.7,10.7c-4.4,6.6-7.8,7.4-10.7,7.4
					c-2.3,0-5-0.7-8.5-2.1c-1.2-0.5-2.4-1.2-3.7-1.9c-1.1-0.7-2.3-1.3-3.6-1.9c-1.2-0.6-2.4-1.2-3.6-1.9c-2.2-1.3-4.6-2.6-7.5-3.5
					c-1.6-0.5-2.8-0.7-3.9-0.7c-2.3,0-4.3,0.9-6.6,2.9c-6.1,5.2-8.9,10.7-11.5,16c-2.3,4.6-4.7,9.3-9.4,14.1
					c-5.7,5.8-8.4,10.6-10.6,14.5c-4.4,7.7-6.2,10.9-27.4,10.9c-2.7,0-5.7-0.1-9.1-0.2l-0.2,0c-13.5,0-77,47.1-127.3,87.4
					C931.7,761.7,865.8,820.8,821.5,867z M1791.8,533.8c-4.1,0-4.5,4.8-4.7,7.3c-0.4,5.7-0.6,11.4-0.7,16.9
					c-0.2,8-0.4,16.2-1.5,24.2c-1.2,8.4-3.9,15.3-8.3,21.1c-3.2,4.3-6.5,9-9.8,14.1c-2.3,3.7-4.7,8.5-4.5,16.2l0,0.1l0,0.1
					c0,0.6,0.1,2.2,0.6,3.8c2.8,9.9,7.1,18.7,12.8,26.2c1.3,1.7,3.4,4.1,6.5,4.1c2.9,0,5.2-2.2,6.6-3.9c2.7-3,4.4-6.8,6-10.3
					c3.1-7,6.4-14.3,10.8-20.9c9.2-13.9,22.2-17.4,33.7-19c2.3-0.3,4.5-0.6,5.9-2.4c1.3-1.8,1.1-4.1,0.5-7.4
					c-1.9-11.6-4.2-25.3-6.8-39c-3.1-16-11.9-20.4-18.9-21.3c-9.6-1.2-17.2-3.9-23.9-8.4C1794.2,534.3,1793,533.8,1791.8,533.8z
					 M1266.8,448.9c-3.1,0-6.2,1.5-9.2,4.6c-5.3,5.4-9.6,12-13.8,18.3c-1.6,2.4-3.3,5-5,7.4c-10.6,15-21.8,25.5-34.2,32
					c-12.6,6.6-23.8,16.3-35.3,30.4c-12.1,14.9-25.3,30.2-41.5,47.9c-1,1.1-2.1,2.3-3.1,3.7c-1.1,1.5-2.5,3.8-1.7,6.2
					c0.8,2.5,3.5,3.4,4.4,3.7c2.1,0.7,4.2,1,6.3,1c0.5,0,0.9,0,1.3-0.1c0.5,0,0.9,0,1.4,0c12.8,0,21.5-9.4,28.6-18.2
					c3.1-3.8,6.1-7.9,9-11.8c5.2-7.1,10.6-14.4,16.7-20.4c1.8-1.7,3.8-3.7,5.9-5.6c3.6-3.1,7-4.6,10.6-4.6c2.9,0,5.9,1,9,3.1l2,1.3
					c2.5,1.7,5,3.4,7.7,4.9c2.7,1.5,5.1,2.2,7.3,2.2c4.1,0,7.6-2.4,10.7-7.2c3.5-5.4,6.8-11.1,10.1-16.5c1.6-2.7,3.2-5.5,4.9-8.2
					c6.4-10.7,14.4-19.9,22.1-28.8c1.8-2.1,3.7-4.3,5.5-6.4c0.6-0.7,1.2-1.4,1.8-2.1c0.8-1.1,1.6-2.1,2.5-3c2.1-2.4,2.3-5,0.6-7.9
					c-4.2-7-9.3-15-15.5-21.4C1272.9,450.4,1269.9,448.9,1266.8,448.9z M1449.2,484.8c8,0,13.9,7.9,14.9,20.1l0.1,0.6
					c0.2,2.3,0.4,4.7,0.1,6.7c-1.3,9.2,1.4,16.8,4.8,25.1c2,4.9,4.7,6,6.6,6c2.1,0,4.1-1.3,5.7-3.8c6.1-9.4,13.9-16.2,24.5-21.6
					c6.7-3.4,8.3-10.9,9-18.5c0.2-2,0.3-4.1,0.5-6.1c0.5-6.9,0.9-13.4,3.3-19.5c0.3-0.7,0.5-1.4,0.8-2.1c0.6-1.6,1.1-3,1.8-4.4
					c4.9-10.1,4.4-20.9,3.9-31.4c-0.1-3.1-0.3-6.3-0.3-9.4l0-4.9l-4.1,2.7c-3.3,2.1-4.3,4.9-5.1,6.9c-0.1,0.3-0.2,0.7-0.4,1
					c-0.6,1.6-1.2,3.1-1.9,4.7c-2,5-3.8,9.8-6.4,14.1c-4.3,7.2-8.9,10.6-14.4,10.6c-2.3,0-4.9-0.6-7.7-1.9
					c-9.1-4-17.2-11.3-24.1-17.9c-2.5-2.3-4.2-4-6.6-4c-2.5,0-4.3,1.9-6.6,4.3c-4.2,4.4-8.9,7.8-13.8,11.5c-1.3,1-2.6,1.9-3.8,2.9
					c-13.9,10.6-24.1,26.4-30.9,48.2c-0.6,1.9-1,3.9,0.1,5.4c0.4,0.5,1.3,1.5,3.1,1.5c0.6,0,1.3-0.1,2.1-0.3
					c5.4-1.4,10.5-2.6,15.4-3.5c3.8-0.7,6.7-2.9,9-6.7c2.6-4.3,6.2-9.6,11-12.9C1442.9,485.9,1446.1,484.8,1449.2,484.8z"/>
			</g>
		</g>
            <g>
			<g>
				<path class="st1" d="M884.4,934.4c-1.4,0-2.4-0.3-2.7-0.7c-0.4-0.6-0.4-2.7,1.8-6.8c0.7-1.3,1.1-2.3,1.5-3.2
					c1.3-2.9,2.1-4.8,9.8-11.4c28.1-23.9,104.8-98.9,124.2-119.6c6-6.4,11.6-12.3,16.7-17.8c32.1-34.2,49.7-53,80.9-83.2
					c8.6-8.4,10.6-11.7,13.8-17.3c0.4-0.7,0.9-1.5,1.3-2.3c10.7-18.1,20.6-29.8,35.4-41.8c8.6-7,15-12.9,21-19.6
					c0.2,0.1,1,0.3,1,0.3c2,4.2,4.5,8,7.5,11.5c-7.9,8.4-16.3,16.3-27.6,26.3c-7.2,6.3-10.8,10.3-18,21.5
					c-14.3,22.4-19.2,28.8-43.2,52.1c-25.5,24.9-47,47.7-80.1,83.7c-22.7,24.7-95.7,100.5-131,123.3l-0.8,0.5
					c-6.4,4.1-6.9,4.4-7.9,4.4c0,0-1.1,0-1.5,0c-0.5,0-1,0-1.6,0C884.9,934.4,884.6,934.4,884.4,934.4z"/>
			</g>
		</g>
            <g>
			<g>
				<path class="st1" d="M1540.8,961.9c-4.4,0-7.5-1.9-11-4.9c-10.2-8.6-16.2-20.4-21.5-31.7c-5.3-11.4-11.3-19.7-19.3-27
					c-13.4-12.1-19.9-27.8-24.5-41.5c-1.1-3.3-2.2-6.8-3.2-10.3c-0.5-1.7-1-3.5-1.5-5.1c-7.3-23.6-20.6-43.8-31.4-58.9
					c-9.5-13.2-19.9-25.3-29.9-37.1c-1.6-1.8-3.2-3.7-4.7-5.5c5.2-1.9,10.2-4.7,14.7-8.1c7.7,8.7,15.6,18.7,23.9,30.5
					c4.7,6.6,8.4,11.3,13.5,11.3c4,0,8-2.9,13.5-8c15.5-14.3,29.7-32.4,42.2-48.5c3.6-4.6,7.3-9.4,11.2-14.6
					c3.9,3.7,7.7,7.3,11.2,10.5c-2.9,4-6,8.1-9.3,12.5c-15.2,20.1-30.9,37.5-49.6,54.5l-0.5,0.5c-0.7,0.6-1.3,1.2-1.9,1.9
					c-5.8,6.8-7.6,11.4-2.6,20.6c4.5,8.4,8.5,18.2,11.8,29.1l0.9,3c2.3,7.6,4.7,15.5,7.7,22.8c4.1,10.3,9.4,18.3,16.4,25.2
					c9.7,9.5,16.3,18.2,21.6,28.3c6.7,12.8,14,23.1,22.8,32.2c2.8,2.9,4.7,6.2,5.5,9.5c0.6,2.6,0.3,5.2-0.9,6.7
					c-0.8,1.1-2,1.7-3.6,1.8C1541.7,961.9,1541.2,961.9,1540.8,961.9C1540.8,961.9,1540.8,961.9,1540.8,961.9z"/>
			</g>
		</g>
            <g>
			<g>
				<path class="st1" d="M1124.1,957.8c-0.4,0-0.8,0-1.6-1.8c-1.1-2.5-1.3-5,1.9-8.9c4.6-5.7,8.7-10,16-14.7
					c5.6-3.6,11.7-7.4,18.1-11.4c12.8-7.9,26-16.1,36.9-24c25.2-18.3,60-47.2,82.3-81.4c7.5-11.5,7.2-15.9,5.8-24.7
					c-0.2-1.3-0.4-2.7-0.6-4.2c-0.4-3.3-1.3-5.9-2.1-8.1c-0.4-1.3-0.9-2.4-1.2-3.7c-4.6-17.8-14.1-28.2-31.9-34.7
					c-1.1-0.4-2.1-0.7-3-1c-1.7-0.5-3.1-0.9-4.5-1.8c-6.7-4.3-9-9.5-8-18.7c0.7-7.1,2.7-14.5,4.7-21.6c0.8-3,1.6-6,2.4-9
					c3.5-14.3,6.8-29.8,7.4-45.9c7.6,0.4,15.1,0.7,22.5,1c5.3,2.3,10.8,4.6,16.7,7.1c0,0.9,0,1.7,0,2.5c0,0.3,0,0.6,0,0.9
					c-3.8,0.8-7.9,1.2-12.3,1.3c-7,0.1-16.3,3.4-21.2,19c-4.2,13.4-8,26.7-11.3,38c-0.9,3.2-1.5,5.5-0.4,7.4
					c1.1,1.9,3.3,2.5,5.5,3.1c11.2,2.9,23.7,7.9,31.2,22.7c3.6,7,6.1,14.7,8.3,22c1.1,3.7,2.5,7.6,4.8,11c1.4,2,3.6,4.6,6.8,4.6
					c2.7,0,4.9-1.9,6.2-3.3c6.5-6.8,11.8-15,15.7-24.6c0.6-1.5,0.9-3.1,1-3.7l0-0.1l0-0.1c1.1-7.6-0.7-12.7-2.6-16.6
					c-2.6-5.4-5.3-10.5-8.1-15.1c-3.7-6.3-5.6-13.5-5.9-21.9c0-1.6,0-3.2,0-4.9c6.5,6.1,14.4,10.3,22.9,12.4
					c2.5,6.4,5.6,12.8,9.4,19.1c3,5,6.3,10.6,7.4,16.9c1.9,11.3,0.4,19.4-5.1,27.3c-9.2,13.2-17.5,21.7-29.8,32.6
					c-7.7,6.9-9.9,9.4-18.8,21.1c-24.5,32.4-58.2,65.5-92.7,90.9c-15.2,11.2-35,24.6-53,35.8l-0.3,0.2c-7.2,4.5-10.8,6.7-16.6,8.6
					C1126.3,957.4,1125,957.8,1124.1,957.8C1124.1,957.8,1124.1,957.8,1124.1,957.8z"/>
			</g>
		</g>
	</g>
        <g>
		<defs>
			<circle id="SVGID_1_" cx="1498.3" cy="1000" r="689.4"/>
		</defs>
            <clipPath id="SVGID_2_">
			<use xlink:href="#SVGID_1_" style="overflow:visible;"/>
		</clipPath>
	</g>
        <g>
		<defs>
			<circle id="SVGID_3_" cx="1498.3" cy="1000" r="689.4"/>
		</defs>
            <clipPath id="SVGID_4_">
			<use xlink:href="#SVGID_3_" style="overflow:visible;"/>
		</clipPath>
	</g>
        <g>
		<path class="st1" d="M1498.3,1699.7c-94.5,0-186.1-18.5-272.4-55c-83.3-35.2-158.2-85.7-222.4-150
			c-64.3-64.3-114.7-139.1-150-222.4c-36.5-86.3-55-177.9-55-272.4s18.5-186.1,55-272.4c35.2-83.3,85.7-158.2,150-222.4
			c64.3-64.3,139.1-114.7,222.4-150c86.3-36.5,177.9-55,272.4-55c94.5,0,186.1,18.5,272.4,55c83.3,35.2,158.2,85.7,222.4,150
			c64.3,64.3,114.7,139.1,150,222.4c36.5,86.3,55,177.9,55,272.4s-18.5,186.1-55,272.4c-35.2,83.3-85.7,158.2-150,222.4
			c-64.3,64.3-139.1,114.7-222.4,150C1684.4,1681.2,1592.8,1699.7,1498.3,1699.7z M1498.3,320.9c-374.5,0-679.1,304.6-679.1,679.1
			s304.6,679.1,679.1,679.1s679.1-304.6,679.1-679.1S1872.8,320.9,1498.3,320.9z"/>
	</g>
        <g>
		<g>
			<path class="st1" d="M2306.6,1370.1c-534-88.8-1079.1-88.8-1613.1,0c-21.2,3.6-38.4-10.7-38.4-32.2c0-108,0-216,0-323.9
				c0-21.4,17.3-38.8,38.7-38.7c537.5,0,1075,0,1612.6,0c21.4-0.1,38.7,17.3,38.7,38.7c0,108,0,216,0,323.9
				C2345,1359.3,2327.8,1373.7,2306.6,1370.1z"/>
		</g>
            <g>
			<g>
				<path class="st0" d="M2309.5,1354.9c-1.2,0-2.4-0.1-3.7-0.3c-267.3-42.2-536.6-63.4-805.8-63.4c-269.3,0-538.5,21.1-805.8,63.4
					l0,0c-6.3,1-12.2-0.6-16.7-4.4c-4.4-3.8-6.9-9.3-6.9-15.5l0.1-321.2c0-12.6,10.3-22.9,23-23c267.5-2.2,536.9-3.3,806.3-3.3
					c269.4,0,538.8,1.1,806.3,3.3c12.7,0.1,23,10.4,23,23l0.1,321.1c0,6.2-2.4,11.7-6.9,15.5
					C2319,1353.3,2314.4,1354.9,2309.5,1354.9z M1500,996.1c-269.4,0-538.8,1.1-806.3,3.3c-7.8,0.1-14.2,6.4-14.2,14.2l-0.1,321.2
					c0,3.5,1.3,6.6,3.8,8.7c2.5,2.1,5.9,3,9.6,2.4l0,0c535.6-84.6,1078.8-84.6,1614.5,0c3.7,0.6,7.1-0.3,9.6-2.4
					c2.4-2.1,3.8-5.2,3.8-8.7l-0.1-321.2c0-7.8-6.4-14.1-14.2-14.2C2038.8,997.3,1769.4,996.1,1500,996.1z"/>
			</g>
		</g>
	</g>
        <g>
		<path class="st1" d="M1178.5,1376.8c0.6,0.4,0.9,1.2,0.7,2l-15.6,51l45.2-28.4c0.7-0.4,1.5-0.3,2.1,0.1l10.4,8
			c0.9,0.7,1.1,1.7,0.4,2.7l-62.6,82.1c-0.7,0.9-1.7,1.1-2.7,0.4l-10.8-8.2c-0.9-0.7-1.1-1.7-0.4-2.7l33.1-43.7l-24,15.1
			c-0.7,0.4-1.5,0.3-2.1-0.1l-9.9-7.5c-0.6-0.4-0.9-1.2-0.7-2l8.2-27.1l-33.3,43.6c-0.7,0.9-1.7,1.1-2.7,0.4l-11-8.4
			c-0.9-0.7-1.1-1.7-0.4-2.7l62.6-82.1c0.7-0.9,1.7-1.1,2.7-0.4L1178.5,1376.8z"/>
            <path class="st1" d="M1190.6,1489.3l29.3-52.6c5.6-10.1,17.7-16.8,30.6-9.7l10.1,5.6c13,7.2,13.4,21,7.8,31l-29.3,52.6
			c-5.7,10.2-17.5,17.1-30.5,9.9l-10.1-5.6C1185.6,1513.4,1185,1499.5,1190.6,1489.3z M1207.6,1494.5c-3.5,6.2-2.8,10.4,3.9,14.2
			c8,4.5,10,3.6,14.3-4.1l25.5-45.9c4.3-7.6,4-9.8-4.1-14.3c-6.8-3.8-10.6-2.2-14.2,4.1L1207.6,1494.5z"/>
            <path class="st1" d="M1319.2,1460.1c10,4,13.7,14.5,10.3,23.1l-9.9,24.8c-1.2,3-3,5.6-5.7,7.6c0.6,3.2,0.1,6.3-1.1,9.5l-9.9,24.8
			c-3.4,8.5-13.3,13.7-23.3,9.7l-30.2-12c-1.1-0.4-1.5-1.4-1.1-2.5l38.2-95.9c0.4-1.1,1.4-1.5,2.5-1.1L1319.2,1460.1z
			 M1295.5,1522.1c0.9-2.3-0.2-5-2.3-5.8l-12.7-5.1l-10.5,26.4l12.7,5.1c2,0.8,4.7-0.5,5.5-2.5L1295.5,1522.1z M1297.2,1469.4
			l-10.5,26.4l12.7,5.1c2,0.8,4.7-0.5,5.6-2.6l7.2-18.2c0.9-2.2-0.3-4.8-2.3-5.6L1297.2,1469.4z"/>
            <path class="st1" d="M1335,1576.1c-0.3,1.1-1.2,1.6-2.3,1.3l-13.3-3.9c-1.1-0.3-1.6-1.2-1.3-2.3l28.7-99.1
			c0.3-1.1,1.2-1.6,2.3-1.3l13.3,3.9c1.1,0.3,1.6,1.2,1.3,2.3L1335,1576.1z"/>
            <path class="st1" d="M1405,1576.7c1.1,0.2,1.7,1.1,1.5,2.2l-2.5,12.7c-0.2,1.1-1.1,1.7-2.2,1.5l-44.8-8.7
			c-1.1-0.2-1.7-1.1-1.5-2.2l19.9-101.3c0.2-1.1,1.1-1.7,2.2-1.5l13,2.5c1.1,0.2,1.7,1.1,1.5,2.2l-16.6,86.8L1405,1576.7z"/>
            <path class="st1" d="M1481.2,1508.4c-0.1,1.2-0.9,1.8-2,1.8l-30-2.1l-2,28.5l21.5,1.5c1.2,0.1,1.8,0.9,1.8,2l-0.9,12.8
			c-0.1,1.2-0.9,1.8-2,1.8l-21.5-1.5l-2,28.4l29.9,2.3c1.2,0.1,1.8,0.9,1.8,2l-0.9,12.8c-0.1,1.2-0.9,1.8-2,1.8l-45.2-3.2
			c-1.2-0.1-1.8-0.9-1.8-2l7.2-103c0.1-1.2,0.9-1.8,2-1.8l45.4,3.2c1.2,0.1,1.8,0.9,1.8,2L1481.2,1508.4z"/>
            <path class="st1" d="M1564.6,1580.1l1.2-0.1c5.5-0.7,7.3-1.6,8-2.7c0.4-0.6,0.5-1.5,0.7-2.9c0-1.6-0.3-3.3-0.5-5.5
			c-0.3-2.8-0.4-5.5-1.1-8.1c0-0.1,0-0.1,0-0.3c-0.1-0.6-0.5-1.4-0.9-2.2l-0.7-1.2l-32.8-18.2l-0.6-0.4c-0.2-0.1-0.3-0.3-0.3-0.4
			l-0.8-0.8c-2.8-2.9-6-7.1-6.5-11.5l-1.4-11.3c-1.4-11.1,6.6-22.2,19.3-23.8l9.4-1.1c14-1.7,25.2,8.1,26.7,20.4l1.6,13.3
			c0.1,1.2-0.5,2-1.7,2.1l-14.3,1.7c-0.6,0.1-0.9-0.2-1-0.8l-0.1-0.7c-0.3-2.5-0.8-6.7-2-10.6c-1.1-4.1-2.8-7.2-4.8-8.1
			c-1.6-0.7-3.6-0.6-6.1-0.3c-9.4,1.1-10.5,1.9-9.5,9.8c0.2,2,0.3,3.9,0.9,5.9c0,0.1,0,0.1,0,0.3c0.1,0.6,0.4,1.1,0.8,2l0.9,1.2
			l32.4,18.1c0.2,0.1,0.2,0.1,0.3,0.3l0.6,0.5l0.2,0.1l0.8,0.9c2.8,2.9,6,6.9,6.5,11.5l1.8,15.1c1.3,11-6.2,22.3-19.3,23.9l-9.4,1.1
			c-14,1.7-25.2-8.4-26.7-20.5l-1.6-13.3c-0.1-1.2,0.5-2,1.7-2.1l13.3-1.6c1.2-0.1,2,0.5,2.1,1.7l1.2,9.6
			C1554,1579.8,1555.5,1581.1,1564.6,1580.1z"/>
            <path class="st1" d="M1662,1577.9c-1,0.3-1.8-0.1-2.2-0.9l-9.7-19.9l-17.2,4.5l1.3,22.1c0.1,0.9-0.5,1.6-1.5,1.9l-13.5,3.5
			c-1.4,0.4-2.3-0.3-2.4-1.8l-4.2-105.6c-0.1-0.9,0.5-1.6,1.3-1.9l12.8-3.4c0.8-0.2,1.7,0.2,2.1,1l48,94.1c0.7,1.3,0.2,2.4-1.2,2.7
			L1662,1577.9z M1632.1,1544.5l9.9-2.6l-10.9-21.9L1632.1,1544.5z"/>
            <path class="st1" d="M1727.1,1555.4l-10.8,4.4c-13.6,5.6-24.8-2.7-29.2-13.4l-31-75.5c-0.4-1.1,0-2,1-2.5l12.5-5.2
			c1.1-0.4,2,0,2.5,1l29.6,72c2.7,6.6,6.4,8.7,13.6,5.8c8.5-3.5,9-5.6,5.7-13.7l-29.7-72c-0.4-1.1,0-2,1-2.5l12.5-5.2
			c1.1-0.4,2,0,2.5,1l31,75.5C1742.7,1536.1,1740.7,1549.8,1727.1,1555.4z"/>
            <path class="st1" d="M1784.5,1476.4l-30.5-51.9c-0.6-1-0.3-2,0.7-2.6l11.7-6.8c1-0.6,2-0.3,2.6,0.7l52.1,89.1c0.6,1,0.3,2-0.7,2.6
			l-11.2,6.6c-0.8,0.4-1.5,0.4-2.1-0.1l-52.9-39.7l30.7,51.8c0.6,1,0.3,2-0.7,2.6l-12,7c-1,0.6-2,0.3-2.6-0.7l-52.2-89
			c-0.6-1-0.3-2,0.7-2.6l11.5-6.7c0.8-0.4,1.5-0.4,2.1,0.1L1784.5,1476.4z"/>
            <path class="st1" d="M1879.7,1463.9c-0.8,0.6-1.7,0.6-2.4,0l-16.9-14.3l-13.9,11l10.1,19.7c0.4,0.8,0.2,1.7-0.6,2.3l-11,8.7
			c-1.1,0.9-2.3,0.7-2.9-0.7l-46.2-95.1c-0.4-0.8-0.2-1.7,0.5-2.2l10.4-8.2c0.7-0.5,1.6-0.5,2.3,0.1l81.8,66.9c1.1,1,1.1,2.1,0,3
			L1879.7,1463.9z M1838.9,1445.2l8-6.3l-18.7-15.7L1838.9,1445.2z"/>
	</g>
        <g>
		<g>
			<polygon class="st0" points="1789.6,891.3 1170,891.3 1127.1,592.4 1789.6,592.4 			"/>
            <path class="st1"
                  d="M1795.4,897.2h-630.5l-44.6-310.7h675.1V897.2z M1175.1,885.5h608.7V598.2h-649.8L1175.1,885.5z"/>
		</g>
            <g>
			<polygon class="st0" points="2024.1,910.4 1789.6,892.2 1789.6,868.7 2024.1,886.8 			"/>
                <path class="st1"
                      d="M2029.9,916.7l-246.2-19v-35.3l246.2,19V916.7z M1795.4,886.8l222.8,17.2v-11.8L1795.4,875V886.8z"/>
		</g>
            <g>
			<rect x="1977.3" y="861.4" class="st0" width="21.7" height="119.4"/>
                <path class="st1" d="M2004.9,986.7h-33.4V855.6h33.4V986.7z M1983.2,975h10V867.3h-10V975z"/>
		</g>
            <g>
			<rect x="1059.6" y="568.8" class="st0" width="771.8" height="23.6"/>
                <path class="st1" d="M1837.2,598.2h-783.5v-35.3h783.5V598.2z M1065.4,586.5h760.1v-11.9h-760.1V586.5z"/>
		</g>
            <g>
			<rect x="1106" y="891.3" class="st0" width="918" height="23.6"/>
                <path class="st1" d="M2029.9,920.8h-929.8v-35.3h929.8V920.8z M1111.9,909.1h906.3v-11.9h-906.3V909.1z"/>
		</g>
            <g>
			<rect x="1386.6" y="914.9" class="st0" width="21.7" height="28.6"/>
                <path class="st1" d="M1414.2,949.4h-33.4v-40.3h33.4V949.4z M1392.5,937.6h10v-16.9h-10V937.6z"/>
		</g>
            <g>
			<g>
				<rect x="1131.4" y="620.1" class="st1" width="658.2" height="4.4"/>
			</g>
                <g>
				<rect x="1135.9" y="650" class="st1" width="653.7" height="4.4"/>
			</g>
                <g>
				<rect x="1140.2" y="679.9" class="st1" width="649.3" height="4.4"/>
			</g>
                <g>
				<rect x="1144.4" y="709.8" class="st1" width="645.2" height="4.4"/>
			</g>
                <g>
				<rect x="1149.1" y="739.7" class="st1" width="640.5" height="4.4"/>
			</g>
                <g>
				<rect x="1153.3" y="769.5" class="st1" width="636.3" height="4.4"/>
			</g>
                <g>
				<rect x="1156.3" y="799.4" class="st1" width="633.2" height="4.4"/>
			</g>
                <g>
				<rect x="1162.1" y="829.3" class="st1" width="627.5" height="4.4"/>
			</g>
                <g>
				<rect x="1164.4" y="859.2" class="st1" width="625.2" height="4.4"/>
			</g>
		</g>
            <g>
			<path class="st0"
                  d="M1332.9,474c-15.2,0-27.5,2.9-27.5,6.4v88.4h55v-88.4C1360.4,476.9,1348.1,474,1332.9,474z"/>
                <path class="st1" d="M1366.3,574.6h-66.7v-94.2c0-10.7,20.9-12.2,33.4-12.2s33.4,1.6,33.4,12.2V574.6z M1311.3,562.9h43.3v-80.3
				c-3-1.2-10.6-2.8-21.7-2.8c-11.1,0-18.7,1.6-21.7,2.8V562.9z"/>
		</g>
            <g>
			<rect x="1767.8" y="592.4" class="st0" width="21.7" height="298.3"/>
                <path class="st1" d="M1795.4,896.5H1762v-310h33.4V896.5z M1773.7,884.8h10V598.2h-10V884.8z"/>
		</g>
            <g>
			<rect x="1483.6" y="664.5" class="st0" width="194.5" height="94.9"/>
                <path class="st1" d="M1683.9,765.3h-206.2V658.6h206.2V765.3z M1489.4,753.5h182.8v-83.2h-182.8V753.5z"/>
		</g>
            <g>
			<g>
				<rect x="1498.8" y="679.7" class="st1" width="164.1" height="64.5"/>
			</g>
                <g>
				<path class="st1" d="M1668.7,750.1h-175.8v-76.2h175.8V750.1z M1504.6,738.4H1657v-52.8h-152.4V738.4z"/>
			</g>
		</g>
	</g>
        <g id="XMLID_1617_">
		<g id="XMLID_1_">
			<path class="st0" d="M1370.5,975.9c-7.5,0-14.9-1.5-21.8-4.4c-6.7-2.8-12.6-6.9-17.8-12s-9.2-11.1-12-17.8
				c-2.9-6.9-4.4-14.2-4.4-21.8c0-7.5,1.5-14.9,4.4-21.8c2.8-6.7,6.9-12.6,12-17.8s11.1-9.2,17.8-12c6.9-2.9,14.2-4.4,21.8-4.4
				c7.5,0,14.9,1.5,21.8,4.4c6.7,2.8,12.6,6.9,17.8,12s9.2,11.1,12,17.8c2.9,6.9,4.4,14.2,4.4,21.8c0,7.5-1.5,14.9-4.4,21.8
				c-2.8,6.7-6.9,12.6-12,17.8s-11.1,9.2-17.8,12C1385.4,974.4,1378.1,975.9,1370.5,975.9z"/>
		</g>
            <g id="XMLID_1640_">
			<path class="st1" d="M1370.5,980.3c-8.1,0-16-1.6-23.5-4.7c-7.2-3-13.6-7.4-19.2-12.9s-9.9-12-12.9-19.2
				c-3.1-7.4-4.7-15.3-4.7-23.5s1.6-16,4.7-23.5c3-7.2,7.4-13.6,12.9-19.2c5.5-5.5,12-9.9,19.2-12.9c7.4-3.1,15.3-4.7,23.5-4.7
				s16,1.6,23.5,4.7c7.2,3,13.6,7.4,19.2,12.9c5.5,5.5,9.9,12,12.9,19.2c3.1,7.4,4.7,15.3,4.7,23.5s-1.6,16-4.7,23.5
				c-3,7.2-7.4,13.6-12.9,19.2c-5.5,5.5-12,9.9-19.2,12.9C1386.6,978.7,1378.7,980.3,1370.5,980.3z M1370.5,876.9
				c-23.8,0-43.1,19.3-43.1,43.1c0,23.8,19.3,43.1,43.1,43.1c23.8,0,43.1-19.3,43.1-43.1C1413.6,896.2,1394.3,876.9,1370.5,876.9z"
            />
		</g>
            <g id="XMLID_1621_">
			<g>
				<path class="st1" d="M1370.7,914.5c-2.7,0-4.9,2.2-4.9,4.9c0,2.7,2.2,4.9,4.9,4.9c2.7,0,4.9-2.2,4.9-4.9
					C1375.6,916.7,1373.4,914.5,1370.7,914.5z M1378.9,923.6l18.7,18.2c5.1-6.1,8.1-13.9,8.1-22.4c0-0.5,0-0.9,0-1.4l-26.1,3.8
					c0.2-0.8,0.3-1.6,0.3-2.4c0-2.5-1-4.8-2.6-6.5l23.1-12.1c-4.7-7.4-12-13-20.8-15.3l-4.4,25.8c-1.4-0.8-2.9-1.2-4.6-1.2
					c-1.7,0-3.4,0.5-4.8,1.3l-4.4-25.9c-8.7,2.3-16.1,8-20.7,15.4l23.1,12.1c-1.6,1.7-2.5,3.9-2.5,6.4c0,0.9,0.1,1.8,0.4,2.7
					l-26.1-3.8c0,0.4,0,0.8,0,1.2c0,8.6,3.1,16.5,8.3,22.6l18.6-18.2c1.5,2.7,4.3,4.6,7.6,4.8l-11.7,23.6c3.8,1.4,8,2.2,12.3,2.2
					c4.4,0,8.6-0.8,12.5-2.3l-11.6-23.5C1374.7,928.3,1377.4,926.4,1378.9,923.6z M1370.7,926.1c-3.7,0-6.7-3-6.7-6.7
					c0-3.7,3-6.7,6.7-6.7c3.7,0,6.7,3,6.7,6.7C1377.3,923.1,1374.3,926.1,1370.7,926.1z"/>
			</g>
		</g>
            <g id="XMLID_1618_">
			<path class="st1" d="M1370.5,959.8c-10.7,0-20.7-4.2-28.3-11.7c-7.6-7.6-11.7-17.6-11.7-28.3s4.2-20.7,11.7-28.3
				s17.6-11.7,28.3-11.7s20.7,4.2,28.3,11.7s11.7,17.6,11.7,28.3s-4.2,20.7-11.7,28.3C1391.3,955.6,1381.2,959.8,1370.5,959.8z
				 M1370.5,881.5c-21.1,0-38.3,17.2-38.3,38.3s17.2,38.3,38.3,38.3s38.3-17.2,38.3-38.3S1391.6,881.5,1370.5,881.5z"/>
		</g>
	</g>
        <g>
		<g>
			<g>
				<path class="st1" d="M761.6,1307.7c-4.3,0-8.5-1.5-11.7-4.4c-4-3.4-6.2-8.4-6.2-13.6v-255.8c0-9.8,7.9-17.8,17.7-18
					c20.7-0.3,41.3-0.7,62-1c1.9-0.1,3.7-0.1,5.5-0.1c26.7,0,48.5,8.4,64.9,24.9c19.6,19.8,29.8,50.3,29.4,88.1l-0.1,38.8
					c0.1,34.6-7,63.4-21.1,85.5c-17.1,26.8-43.4,42.6-78.1,47c-19.7,2.7-39.8,5.5-59.6,8.4C763.3,1307.6,762.5,1307.7,761.6,1307.7z
					 M823.9,1226.8c10-3.2,18.2-14.5,17.7-54.4c0-0.1,0.1-43.6,0.1-43.7c0.6-25.9-4.7-35.2-7.8-38.4c-1.5-1.5-4-3.3-9.7-3.3
					c-0.1,0-0.1,0-0.2,0L823.9,1226.8z"/>
			</g>
		</g>
            <g>
			<g>
				<path class="st1" d="M970.4,1266.7c-16.4,0-31.7-6.5-42.9-18.3c-12.1-12.7-18.6-30.6-17.8-49.1l0-1
					c0.3-28.1,13.1-48.5,31.7-61.8c-1.8,0.1-3.8,0.2-5.8,0.3c-0.3,0-0.6,0-0.9,0c-4.6,0-9-1.8-12.4-5c-3.6-3.4-5.6-8.1-5.6-13l0-0.9
					c0.4-42.3,32.4-71.5,79.8-72.6c0.9,0,1.9,0,2.8,0c24.2,0,44.9,7.6,58.3,21.3c11.1,11.4,16.8,26.7,16.4,44.2l-0.3,90.1
					c0,9.5,0.4,29.1,1,35.5c0.5,4.8-1,9.5-4.1,13.2c-3.1,3.7-7.5,6-12.3,6.4c-16,1.3-23.8,2-39.8,3.5c-0.5,0-1.1,0.1-1.6,0.1
					c-3.3,0-6.4-0.9-9-2.4c-8.8,4.9-19.2,8-30.5,9.2C974.8,1266.6,972.6,1266.7,970.4,1266.7
					C970.4,1266.7,970.4,1266.7,970.4,1266.7z M995.2,1183.7c-2.3,0.8-4.2,1.9-5.5,3.3c-0.9,0.9-1.7,2.2-1.5,4.8c0,0.3,0,0.6,0,0.8
					l0,1.2c0,0.9,0.1,1.7,0.2,2.3c0,0,0.1,0,0.1,0c2.3-0.2,3.4-0.7,4.6-3.3C994.2,1190.4,994.9,1187.3,995.2,1183.7z"/>
			</g>
		</g>
            <g>
			<g>
				<path class="st1" d="M1092.5,1253.2c-4.5,0-8.9-1.7-12.2-4.8c-3.7-3.4-5.8-8.2-5.7-13.2l0.4-120.6c0-3.5,0-7.1,0.1-10.6
					c0.1-13,0.2-26.4-0.3-39.3c-0.2-4.8,1.6-9.5,4.9-13c3.3-3.5,7.9-5.5,12.7-5.6c16.8-0.3,25.2-0.5,42-0.8c0.1,0,0.2,0,0.3,0
					c3.9,0,7.5,1.2,10.5,3.4c9.1-4.4,19.5-6.8,30.5-6.8l0.6,0c17.4,0,29.4,5,37.6,11.4c11.5-7.7,25.9-12.1,41.7-12.6
					c0.7,0,1.3,0,2,0c17.8,0,33.9,6.6,45.4,18.5c11.1,11.6,16.9,27.5,16.3,44.8l-0.3,119.4c0,9.6-7.6,17.5-17.3,17.9
					c-17.5,0.7-26,1-43.5,1.9c-0.3,0-0.6,0-0.8,0c-4.6,0-9.1-1.8-12.4-5c-3.6-3.4-5.6-8.1-5.5-13l0.3-114.9c0-0.6,0-1.1,0-1.6
					c-0.6,0-1,0.1-1.3,0.1c-0.4,1.2-1.2,4.3-1.2,10.9l-0.4,107.4c0,9.5-7.5,17.4-17,17.9c-17.5,0.9-26.1,1.4-43.8,2.5
					c-0.4,0-0.7,0-1.1,0c-4.6,0-9-1.7-12.3-4.9c-3.6-3.4-5.7-8.2-5.6-13.1l0.4-116.5c0-0.9,0-1.7-0.1-2.4c-0.6,0-1,0.1-1.4,0.2
					c-0.4,1.2-1.3,4.5-1.3,11.7l-0.4,109.6c0,9.4-7.3,17.2-16.7,17.9c-17.6,1.2-26.2,1.8-43.6,3.2
					C1093.4,1253.2,1092.9,1253.2,1092.5,1253.2z"/>
			</g>
		</g>
            <g>
			<g>
				<path class="st1" d="M1337.5,1296.3c-4.6,0-9.1-1.8-12.5-5c-3.5-3.4-5.5-8.1-5.5-13c0,0,0.4-177.3,0.4-180.3
					c0-12.2,0.1-24.9-0.3-37.1c-0.1-4.8,1.7-9.5,5-13c3.3-3.5,8-5.5,12.8-5.5c16.9-0.1,25.3-0.2,42.2-0.3c0,0,0.1,0,0.1,0
					c4,0,7.7,1.3,10.8,3.6c9.1-4.2,19.7-6.5,31.2-6.5l0.3,0c18.1,0.1,34,6.5,45.8,18.6c14.9,15.1,22.8,38.2,22.4,65l0,27.5
					c0.8,28.2-7.2,52.6-22.5,68.8c-12.8,13.6-30.4,21-50.9,21.5c-0.8,0-1.6,0-2.4,0c-5.5,0-10.5-0.5-14.9-1.4l-0.1,37.5
					c0,9.7-7.7,17.6-17.4,17.9c-17.6,0.5-26.2,0.8-43.9,1.6C1338,1296.3,1337.8,1296.3,1337.5,1296.3z M1401.7,1174
					c0.2,0,0.4,0,0.8,0c0.1,0,0.3,0,0.4,0c1.8-0.1,2.4-0.6,3-1.2c2.5-2.8,4.7-10.4,4.2-19.5c0-0.4,0-0.8,0-1.1l0-26.8
					c0-0.4,0-0.9,0.1-1.3c0.6-7.6-1.4-14.7-3.7-17.1c-0.4-0.4-0.5-0.6-1.6-0.6h-0.1c-1.5,0-1.8,0.3-2,0.5c-1.4,1.4-4,7.3-3.9,19.4
					c0,0.1,0,24.5,0,24.6C1398.6,1167.6,1400.6,1172.5,1401.7,1174z"/>
			</g>
		</g>
            <g>
			<g>
				<path class="st1" d="M1551.3,1237.1c-12.6-0.1-20.7-0.1-30.8-0.1c-3.9,0-13.1,0-13.1,0c-4.8,0-9.3-1.9-12.7-5.3
					c-3.4-3.4-5.3-7.9-5.3-12.7l0-111.5c-1,0-3.3,0-3.3,0c-4.8,0-9.3-1.9-12.7-5.3c-3.4-3.4-5.3-8-5.3-12.7l0-29.9
					c0-9.9,8-17.9,17.9-18c1.2,0,2.3,0,3.4,0c1.6-35,29.3-59.1,68.3-59.1c0.5,0,1,0,1.5,0c4,0.1,14.1,0.4,21.1,2
					c8.1,1.9,13.9,9.1,13.9,17.5l0,30.5c0,5-2.1,9.7-5.7,13.1c4.1,3.3,6.8,8.4,6.8,14l0,30c0,4.8-1.9,9.4-5.3,12.7
					c-3.4,3.4-7.9,5.2-12.7,5.2c0,0-5.7,0-8.1,0l0.1,111.5c0,4.8-1.9,9.4-5.3,12.7c-3.4,3.3-7.9,5.2-12.7,5.2
					C1551.4,1237.1,1551.4,1237.1,1551.3,1237.1z"/>
			</g>
		</g>
            <g>
			<g>
				<path class="st1" d="M1769.6,1242.7c-0.3,0-0.5,0-0.8,0c-17.3-0.8-25.8-1.1-43.4-1.8c-8.1-0.3-15.1-6.1-16.9-14
					c-2.3-10.1-4.7-20.3-7.1-30.3c-0.1,0.3-0.2,0.7-0.3,1c-2.5,9.3-5.1,18.8-7.5,28.2c-2,8-9.2,13.5-17.4,13.5c-0.2,0-0.4,0-0.5,0
					c-14.7-0.4-29.6-0.8-44.4-1.1c-8.1-0.2-15.1-5.7-17.1-13.5c-13.6-53.5-27.2-107-40.8-160.4c-1.4-5.4-0.2-11.1,3.2-15.5
					c3.4-4.4,8.6-6.9,14.2-6.9c0,0,0,0,0.1,0c15.6,0.1,31.2,0.1,46.8,0.2c8.7,0.1,16.1,6.3,17.6,14.8c1.4,7.7,2.8,15.3,4.2,23
					c0.1,0.8,0.3,1.5,0.4,2.3c2-8.5,4.1-17.1,5.9-25.5c1.8-8.3,9.1-14.2,17.6-14.2c0,0,0.1,0,0.1,0c16,0.1,23.9,0.2,39.9,0.4
					c8.4,0.1,15.5,5.9,17.4,14.1c1.9,8.5,3.9,17.1,6,25.6c0.9-5,4.5-24.4,4.5-24.4c1.6-8.5,9-14.7,17.7-14.7c0.1,0,0.1,0,0.2,0
					c17.6,0.2,26.3,0.3,43.9,0.6c5.5,0.1,10.7,2.7,14,7.1c3.3,4.4,4.5,10.1,3.1,15.4c-14,53.2-28.5,108.1-43.2,163.1
					C1784.8,1237.2,1777.7,1242.7,1769.6,1242.7z"/>
			</g>
		</g>
            <g>
			<g>
				<path class="st1" d="M1949.6,1253.8c-0.5,0-0.9,0-1.4-0.1c-16-1.2-23.8-1.8-39.9-3c-3.7-0.3-7.2-1.7-10-3.9
					c-7.4,2.7-15.8,4.1-25.3,4.1c-1.9,0-3.9-0.1-5.9-0.2c-37.7-2-66.2-32.6-65.1-69.8l0-0.7c-0.4-17.6,5.5-33.1,17-44.9
					c3.3-3.4,7-6.4,10.8-8.9c-1.2,0-2.5-0.1-3.8-0.1c-9.7-0.3-17.5-8.2-17.5-17.9l0-0.8c0.1-21.6,9.6-39.9,26.8-51.5
					c17.2-11.5,37.4-14,51.4-14c0.7,0,1.4,0,2.1,0c14.1,0.2,34.5,3.1,51.5,15.2c17.1,12.2,25.9,30.2,25.6,52.1l0.3,89.2
					c0,9.4,0.6,28.8,1.2,35.3c0.5,5.3-1.3,10.6-5,14.4C1959.1,1251.9,1954.4,1253.8,1949.6,1253.8z M1887.8,1174.8
					c-4.1,0.5-6.7,2-7.1,2.6c0,0.1-0.1,0.5-0.1,1.3c0,0.3,0,0.7,0,1l0,1.1c0,2.9,0.5,3.4,3.8,3.8c0.2,0,0.4,0,0.6,0
					c0.1,0,0.1,0,0.2,0C1886.3,1183.5,1887.6,1179.8,1887.8,1174.8z"/>
			</g>
		</g>
            <g>
			<g>
				<path class="st1" d="M2053.7,1327.3c-4.1,0-8.4-0.2-12.8-0.7c-38.6-4-78.3-28-79.7-72.7c0-0.2,0-0.8,0-0.8
					c0-5.1,2.1-9.9,5.8-13.3c3.3-3.1,7.7-4.8,12.2-4.8c0.5,0,1.1,0,1.6,0.1c0.4,0,0.8,0.1,1.2,0.1c-14.5-16.4-22.5-40.7-22.3-70.5
					l-0.1-27.7c-0.4-29.4,8.8-55.8,25.2-72.4c12.6-12.7,29-19.5,47.7-19.5c0.9,0,1.7,0,2.6,0c11.7,0.4,20.9,2.7,28.1,6.1
					c2.6-1.4,5.5-2.2,8.6-2.2c0.2,0,0.3,0,0.5,0c16.3,0.4,24.4,0.7,40.6,1.1c4.8,0.1,9.3,2.2,12.6,5.6s5,8.1,4.9,12.9
					c-0.5,15.3-0.7,31.8-0.6,50.4l0.3,118.3c0.7,30.3-6.6,53.6-21.9,69.2C2094.9,1320.4,2076.6,1327.3,2053.7,1327.3z
					 M2044.3,1258.3c0.7,0.2,1.5,0.3,2.4,0.4c0.4,0,0.7,0.1,1.1,0.1c0.1,0,0.2,0,0.3,0c0.2-0.2,0.4-0.6,0.6-1
					C2047.3,1258,2045.8,1258.2,2044.3,1258.3z M2045.7,1115.9c-0.5,0-0.8,0.1-0.9,0.1c-1.3,0.9-4.9,8-4.7,23.2
					c0,0.1,0.1,26.4,0.1,26.4c-0.1,10.8,1.4,16.9,2.7,20c1.6,4.1,2.8,4.2,4.1,4.3c0.2,0,0.4,0,0.6,0c0,0,0,0,0,0
					c1.4-1.9,4.2-9.5,3.2-26.1c0-0.3,0-0.7,0-1l-0.1-22.5c0-0.3,0-0.6,0-0.9c0.9-19.1-3.3-23.3-3.4-23.3c-0.1,0-0.5-0.2-1.4-0.2
					L2045.7,1115.9z"/>
			</g>
		</g>
            <g>
			<g>
				<path class="st1" d="M2216.7,1284c-3.7,0-7.5-0.3-11.3-0.7c-51.4-6.7-82.2-47.9-82.4-110.1l-0.1-25.7c0-24.4,6.5-47.4,18.3-64.6
					c14.5-21.2,36.7-32.9,62.3-32.9c1.8,0,3.6,0.1,5.4,0.2c51.1,3.1,82.5,42.6,81.9,103.3l0,4c-0.1,9.3-0.2,20.8-0.4,26.8
					c-0.2,4.9-2.4,9.6-6.1,12.9c-0.1,0.1-0.3,0.2-0.4,0.4c3.5,3.3,5.7,8,5.7,13.2c0,0,0,0.8,0,0.9
					C2288.4,1253.6,2257.7,1284,2216.7,1284z M2202.4,1195.6c0.3,4.6,1.1,8.8,2.4,11.8c1.8,4.4,3.6,4.6,5.1,4.8c0.3,0,0.7,0.1,1,0.1
					c0.3-1,0.7-2.8,0.9-5.9c0-3.5,1-6.8,2.9-9.7C2210.5,1196.3,2206.4,1195.9,2202.4,1195.6z M2211.6,1128.6
					c-0.6-3.2-1.6-5.5-2.6-6.6c-0.3-0.3-0.5-0.6-1.9-0.6l-0.3,0c-0.5,0-0.8,0.1-0.9,0.1c-0.7,0.5-1.9,2.8-2.6,6.6
					C2206.1,1128.2,2208.9,1128.4,2211.6,1128.6z"/>
			</g>
		</g>
	</g>
        <g>
		<g>
			<path class="st0" d="M761.6,1033.9c20.7-0.4,41.5-0.7,62.2-1c59.3-2.6,81.8,41.5,81.3,94.8c0,15.6-0.1,23.3-0.1,38.9
				c0.1,57.2-21.1,106.8-83.5,114.7c-20,2.7-40,5.5-60,8.5C761.6,1204.4,761.6,1119.1,761.6,1033.9z M805.9,1247.4
				c5.7-0.7,8.6-1,14.3-1.7c37-3.4,39.7-44.3,39.4-73.5c0-17.2,0-25.9,0.1-43.1c0.6-27.1-3.8-62.6-39.2-59.9
				c-5.8,0.2-8.7,0.3-14.4,0.5C806,1128.9,806,1188.1,805.9,1247.4z"/>
            <path class="st0" d="M1055.5,1200.9c0,9.4,0.4,29.8,1.1,37.2c-16,1.3-24,2-40,3.5c-0.8-3.3-2-10.6-2.1-14.5
				c-8.5,13.5-24.2,19.8-39.2,21.3c-28.9,3-48.9-21-47.6-48.7c0-0.5,0-0.8,0-1.4c0.4-41.4,36.5-61.4,74-62.9
				c4.1-0.2,7.7-0.4,10.8-0.3c0-8.1,0-12.1,0.1-20.2c0-11.5-1.4-21.4-17.4-20.8c-15.2,0.6-17.6,10.2-18.3,21.6c0,0.5,0,0.7,0,1.2
				c-16.9,0.8-25.3,1.2-42.2,2c0-0.4,0-0.6,0-0.9c0.3-36,28.7-53.9,62.2-54.7c30.4-0.7,60,12.7,59.1,47.3
				C1055.7,1140.7,1055.6,1170.8,1055.5,1200.9z M1013.2,1164c-3.3-0.2-7.2,0.2-10.9,0.3c-16.3,0.5-32.9,9.8-32.1,28.3
				c0,0.5,0,0.7,0,1.2c0,11.3,5.2,21.4,19.7,20.2c19.8-1.6,24.2-21.7,23.2-38.5C1013.2,1170.9,1013.2,1168.6,1013.2,1164z"/>
            <path class="st0" d="M1092.9,1114.6c0.1-16.9,0.4-33.8-0.2-50.6c16.8-0.3,25.2-0.5,42-0.8c0.9,4,1.3,10.5,1.4,16
				c8.7-13.3,24.3-19.3,39.7-19.4c19-0.1,30.8,6.8,36.3,19.8c10.1-14.2,27.5-20.5,44-20.9c26.2-0.7,46.3,17.5,45.2,44.9
				c-0.1,39.9-0.2,79.8-0.3,119.7c-17.5,0.7-26.2,1.1-43.6,1.9c0.1-38.3,0.2-76.6,0.3-114.9c0-12.2-4.4-19.9-17.7-19.6
				c-16,0.3-20.7,10.5-20.8,29c-0.1,35.8-0.2,71.6-0.4,107.4c-17.6,0.9-26.4,1.5-44,2.5c0.1-38.8,0.3-77.6,0.4-116.5
				c0.1-14.9-5.6-20.7-17.7-20.4c-16,0.4-20.9,10.2-21,29.8c-0.1,36.5-0.3,73.1-0.4,109.6c-17.5,1.2-26.3,1.8-43.8,3.2
				C1092.6,1195,1092.8,1154.8,1092.9,1114.6z"/>
            <path class="st0" d="M1381.7,1209c0,22.6-0.1,45.2-0.1,67.8c-17.6,0.5-26.5,0.9-44.1,1.6c0.1-57.2,0.3-114.3,0.4-171.5
				c0-15.5,0.2-31-0.3-46.5c16.9-0.1,25.3-0.2,42.2-0.3c0.7,3.3,1.4,10.9,1.4,16.6c8.3-14.2,25.3-19.5,40.7-19.5
				c36.5,0.1,50.9,33.1,50.4,65.5c0,11.2,0,16.8,0,27.9c1.2,37.4-15.5,71.1-55.9,72.1C1397.8,1223.2,1387.2,1216.8,1381.7,1209z
				 M1428,1152.1c0-10.7,0-16.1,0-26.8c1.2-15.5-4.4-37.2-23.4-37c-20.1,0.2-23.8,21.9-23.6,38.1c0,9.6,0,14.4,0,24
				c-0.3,16.4,0.1,42.6,22.7,41.6C1423.7,1191.1,1429.1,1168.8,1428,1152.1z"/>
            <path class="st0" d="M1507.3,1219c0-43.2,0-86.3,0-129.5c-8.5,0-12.8,0-21.3,0c0-12,0-18,0-29.9c8.5,0,12.7,0,21.2,0
				c0-6,0-9,0-15c0.1-29.5,23.7-44.5,51.6-44.1c6.4,0.1,13.4,0.6,17.3,1.6c0,12.2,0,18.3,0,30.5c-3.3-0.5-6-0.7-9.1-0.7
				c-12.7,0-15.9,5.6-15.9,16.1c0,4.7,0,7,0,11.7c10.4,0,15.6,0,26,0.1c0,12,0,18,0,30c-10.4,0-15.6-0.1-26-0.1
				c0,43.2,0,86.4,0.1,129.5C1533.8,1219,1525,1219,1507.3,1219z"/>
            <path class="st0" d="M1637.7,1059.9c7,39.1,14.8,78.2,19.4,117.6c0.2,0,0.3,0,0.6,0c5.7-39.4,17.3-78.4,25.7-117.3
				c15.9,0.1,23.9,0.2,39.8,0.4c8.8,39.5,20.3,79.1,25.4,119.3c0.2,0,0.2,0,0.4,0c5.3-39.8,12.7-79.3,19.9-118.8
				c17.5,0.2,26.3,0.3,43.8,0.6c-14.3,54.4-28.6,108.7-43.1,163c-17.4-0.8-26.1-1.2-43.6-1.8c-8.1-36.2-18-72.3-23.9-109
				c-0.2,0-0.2,0-0.4,0c-5.1,36.2-16.6,72-25.5,107.3c-14.8-0.4-29.7-0.8-44.5-1.1c-13.6-53.5-27.2-107-40.8-160.4
				C1606.5,1059.8,1622.1,1059.8,1637.7,1059.9z"/>
            <path class="st0" d="M1948.3,1198.8c0,9.3,0.6,29.6,1.3,37c-16-1.2-24-1.8-40-3c-0.8-3.3-2.1-10.5-2.2-14.3
				c-7.2,9.9-19.1,15.4-39.2,14.3c-27.4-1.5-49.1-23.8-48.1-51.6c0-0.5,0-0.7,0-1.2c-0.9-40.6,40.5-52.2,73.8-50.8
				c4.1,0.2,7.7,0.3,10.8,0.6c0-7.8,0-11.7-0.1-19.4c0-11.1-1.6-20.6-17.6-21.1c-15.2-0.4-17.5,8.5-18.2,19.1c0,0.4,0,0.7,0,1.1
				c-16.9-0.5-25.4-0.8-42.3-1.2c0-0.3,0-0.5,0-0.8c0.1-34.8,31.3-47.9,62-47.4c30.5,0.5,60,14.7,59.4,49.2
				C1948.1,1139.2,1948.2,1169,1948.3,1198.8z M1905.6,1157.7c-3.3-0.5-7.3-0.6-10.9-0.9c-14.8-1.2-33.1,5-32,23c0,0.4,0,0.7,0,1.1
				c0,10.5,6,20.2,19.9,21.6c19.2,1.9,24.2-18.8,23-33.8C1905.7,1164.3,1905.7,1162.1,1905.6,1157.7z"/>
            <path class="st0" d="M2112.1,1237.7c1.2,47.4-19.6,76.1-69.3,71c-30.9-3.2-62.5-21.1-63.6-55.4c0-0.1,0-0.2,0-0.3
				c17.5,1.6,26.3,2.4,43.8,4.1c0,0.1,0,0.2,0,0.3c0.5,4.8,2.5,16.9,21.6,19.1c22.3,2.6,25.1-22.3,24-38.9c0-5,0-7.5,0-12.5
				c-6.4,11.8-19.7,16.8-37.7,15.3c-39.9-3.3-53.5-40.5-53.2-75.6c0-11.2-0.1-16.7-0.1-27.9c-0.5-35.3,15.7-75,56.9-73.7
				c23.5,0.8,32.3,10.9,35.5,19.5c0.2-5.3,1.1-11.9,1.8-15.6c16.2,0.4,24.4,0.7,40.6,1.1c-0.5,17-0.7,34-0.6,51
				C2111.9,1158.7,2112,1198.2,2112.1,1237.7z M2022.2,1139.4c0,10.5,0.1,15.8,0.1,26.3c-0.1,16.4,2.8,40.4,23.1,42.2
				c23.4,2.1,24.3-28.9,23.4-45.1c0-9,0-13.5-0.1-22.5c0.8-16.5-0.8-41.6-22.1-42.4C2025.4,1097.2,2022,1123.1,2022.2,1139.4z"/>
            <path class="st0" d="M2184.3,1176c0,4.7,0,7.1,0,11.8c-0.7,16.7,3.1,39.8,23.4,42.2c18.9,2.2,21.4-13.8,21.9-23.3
				c0-0.1,0-0.2,0-0.4c16.9,1.7,25.3,2.6,42.1,4.4c0,0.1,0,0.2,0,0.4c-1.2,35.6-28.2,59-64,54.3c-48.5-6.3-66.6-47.8-66.7-92.3
				c0-10.3,0-15.4-0.1-25.7c0-40.4,20.8-82.1,66.9-79.3c47.3,2.8,65.4,42,65,85.2c-0.1,9-0.2,23.7-0.4,30.4
				C2243.1,1181.1,2213.7,1178.5,2184.3,1176z M2230.2,1147.9c0-3.3,0-5,0-8.3c0.7-15.2-3.5-35.4-22.3-36.2
				c-18.5-0.8-23.7,18.5-23.1,33.3c0,3.2,0,4.9,0,8.1C2200,1145.7,2215.1,1146.8,2230.2,1147.9z"/>
		</g>
	</g>
</g>
</svg>
