<?xml version="1.0" encoding="UTF-8" standalone="no"?>
<!DOCTYPE svg PUBLIC "-//W3C//DTD SVG 1.1//EN" "http://www.w3.org/Graphics/SVG/1.1/DTD/svg11.dtd">
<svg width="100%" height="100%" viewBox="0 0 128 128" version="1.1" xmlns="http://www.w3.org/2000/svg" xmlns:xlink="http://www.w3.org/1999/xlink" xml:space="preserve" xmlns:serif="http://www.serif.com/" style="fill-rule:evenodd;clip-rule:evenodd;stroke-linejoin:round;stroke-miterlimit:2;">
    <g transform="matrix(1,0,0,1,-1436.1,-905.893)">
        <g transform="matrix(0.131121,1.11693e-20,-2.23386e-20,0.131121,1297.94,874.509)">
            <path d="M1338.35,891.3C1336.71,893.133 1335.23,895.106 1333.92,897.2L1315.45,897.2C1316.3,895.175 1317.24,893.206 1318.3,891.3C1319.4,889.293 1320.62,887.357 1321.94,885.5C1332.75,870.33 1350.48,860.428 1370.5,860.428C1390.53,860.428 1408.26,870.33 1419.06,885.5C1420.38,887.357 1421.6,889.293 1422.7,891.3C1423.76,893.206 1424.7,895.175 1425.55,897.2L1407.08,897.2C1405.77,895.106 1404.29,893.133 1402.65,891.3C1400.75,889.165 1398.63,887.221 1396.34,885.5C1389.13,880.1 1380.19,876.9 1370.5,876.9C1360.81,876.9 1351.87,880.1 1344.66,885.5C1342.37,887.221 1340.26,889.165 1338.35,891.3Z"/>
            <path d="M1338.35,891.3C1336.71,893.133 1335.23,895.106 1333.92,897.2L1315.45,897.2C1316.3,895.175 1317.24,893.206 1318.3,891.3C1319.4,889.293 1320.62,887.357 1321.94,885.5C1332.75,870.33 1350.48,860.428 1370.5,860.428C1390.53,860.428 1408.26,870.33 1419.06,885.5C1420.38,887.357 1421.6,889.293 1422.7,891.3C1423.76,893.206 1424.7,895.175 1425.55,897.2L1407.08,897.2C1405.77,895.106 1404.29,893.133 1402.65,891.3C1400.75,889.165 1398.63,887.221 1396.34,885.5C1389.13,880.1 1380.19,876.9 1370.5,876.9C1360.81,876.9 1351.87,880.1 1344.66,885.5C1342.37,887.221 1340.26,889.165 1338.35,891.3Z" style="fill:none;"/>
            <g transform="matrix(7.62656,-6.49654e-19,1.29931e-18,7.62656,1053.7,239.35)">
                <path d="M17.438,86.258L14.581,86.258L8.733,45.519L11.549,45.519L15.244,71.081L11.453,45.946L15.244,71.081L17.438,86.258Z"/>
            </g>
            <g>
                <path d="M2029.9,916.7L1783.7,897.7L1783.7,862.4L2029.9,881.4L2029.9,916.7ZM1931.44,885.501L1795.4,875.003L1795.4,886.8L2018.2,904L2018.2,892.2L1931.44,885.501Z"/>
            </g>
            <g>
                <g transform="matrix(13.2031,-1.12468e-18,2.24937e-18,13.2031,1053.7,468.2)">
                    <rect x="70.4" y="30.228" width="0.757" height="8.157"/>
                </g>
                <path d="M2004.9,986.7L1971.5,986.7L1971.5,855.6L2004.9,855.6L2004.9,986.7ZM1983.2,975L1993.2,975L1993.2,867.3L1983.2,867.3L1983.2,975Z" style="fill-rule:nonzero;"/>
            </g>
            <g>
                <rect x="1059.6" y="568.8" width="771.8" height="23.6"/>
                <path d="M1837.2,598.2L1053.7,598.2L1053.7,562.9L1837.2,562.9L1837.2,598.2ZM1065.4,586.5L1825.5,586.5L1825.5,574.6L1065.4,574.6L1065.4,586.5Z" style="fill-rule:nonzero;"/>
            </g>
            <path d="M1303.26,920.8L1100.1,920.8L1100.1,885.5L1312.68,885.5C1311.09,888.149 1309.69,890.913 1308.49,893.792C1305.04,902.156 1303.25,910.855 1303.25,920C1303.25,920.267 1303.25,920.534 1303.26,920.8ZM1428.34,885.5L2029.9,885.5L2029.9,920.8L1437.74,920.8C1437.75,920.534 1437.75,920.267 1437.75,920C1437.75,910.855 1435.96,902.045 1432.51,893.792C1431.31,890.923 1429.92,888.154 1428.34,885.5ZM1321.94,885.5L1344.66,885.5C1334.18,893.363 1327.4,905.891 1327.4,920C1327.4,920.267 1327.4,920.534 1327.41,920.8L1310.93,920.8C1310.93,920.534 1310.93,920.267 1310.93,920C1310.93,907.146 1315.01,895.238 1321.94,885.5ZM1430.07,920.8L1413.59,920.8C1413.6,920.534 1413.6,920.267 1413.6,920C1413.6,905.891 1406.82,893.363 1396.34,885.5L1419.06,885.5C1425.99,895.238 1430.07,907.146 1430.07,920C1430.07,920.267 1430.07,920.534 1430.07,920.8Z"/>
            <g>
                <path d="M1366.4,574.6L1299.6,574.6L1299.6,480.4C1299.6,469.7 1320.5,468.2 1333,468.2C1345.5,468.2 1366.4,469.8 1366.4,480.4L1366.4,574.6ZM1311.2,562.9L1354.6,562.9L1354.6,482.6C1351.6,481.4 1344,479.8 1332.9,479.8C1321.8,479.8 1314.2,481.4 1311.2,482.6L1311.2,562.9Z" style="fill-rule:nonzero;"/>
            </g>
            <g>
                <rect x="1767.8" y="592.4" width="21.7" height="298.3"/>
                <path d="M1795.4,896.5L1762,896.5L1762,586.5L1795.4,586.5L1795.4,896.5ZM1773.7,884.8L1783.7,884.8L1783.7,598.2L1773.7,598.2L1773.7,884.8Z" style="fill-rule:nonzero;"/>
            </g>
            <g>
                <g>
                    <path d="M1668.7,750.1L1492.9,750.1L1492.9,673.9L1668.7,673.9L1668.7,750.1ZM1657.15,685.353L1504.38,685.353L1504.38,738.529L1657.15,738.529L1657.15,685.353Z"/>
                </g>
            </g>
        </g>
        <g id="XMLID_1617_" transform="matrix(0.131121,1.11693e-20,-2.23386e-20,0.131121,1297.94,874.509)">
            <g id="XMLID_1640_">
                <path d="M1370.5,980.3C1362.4,980.3 1354.5,978.7 1347,975.6C1339.8,972.6 1333.4,968.2 1327.8,962.7C1322.2,957.2 1317.9,950.7 1314.9,943.5C1311.8,936.1 1310.2,928.2 1310.2,920C1310.2,911.8 1311.8,904 1314.9,896.5C1317.26,890.838 1320.48,885.671 1324.43,880.999C1325.5,879.729 1326.62,878.496 1327.8,877.3C1333.3,871.8 1339.8,867.4 1347,864.4C1354.4,861.3 1362.3,859.7 1370.5,859.7C1378.7,859.7 1386.5,861.3 1394,864.4C1401.2,867.4 1407.6,871.8 1413.2,877.3C1418.7,882.8 1423.1,889.3 1426.1,896.5C1429.2,903.9 1430.8,911.8 1430.8,920C1430.8,928.2 1429.2,936 1426.1,943.5C1423.1,950.7 1418.7,957.1 1413.2,962.7C1407.7,968.2 1401.2,972.6 1394,975.6C1386.6,978.7 1378.7,980.3 1370.5,980.3ZM1370.5,876.9C1346.7,876.9 1327.4,896.2 1327.4,920C1327.4,943.8 1346.7,963.1 1370.5,963.1C1394.3,963.1 1413.6,943.8 1413.6,920C1413.6,896.2 1394.3,876.9 1370.5,876.9Z" style="fill-rule:nonzero;"/>
            </g>
        </g>
        <g id="XMLID_1617_1" serif:id="XMLID_1617_">
        </g>
    </g>
</svg>
