<?xml version="1.0" encoding="UTF-8" standalone="no"?>
<!DOCTYPE svg PUBLIC "-//W3C//DTD SVG 1.1//EN" "http://www.w3.org/Graphics/SVG/1.1/DTD/svg11.dtd">
<svg width="100%" height="100%" viewBox="0 0 128 128" version="1.1" xmlns="http://www.w3.org/2000/svg"
     xmlns:xlink="http://www.w3.org/1999/xlink" xml:space="preserve" xmlns:serif="http://www.serif.com/"
     style="fill-rule:evenodd;clip-rule:evenodd;stroke-linejoin:round;stroke-miterlimit:2;">
    <g transform="matrix(1,0,0,1,-1436.1,-935.9)">
        <g transform="matrix(0.0757396,6.45173e-21,-1.29035e-20,0.0757396,1386.48,924.168)">
            <circle cx="1498.3" cy="1000" r="720.8" style="fill:white;"/>
            <path d="M1498.3,1731.1C1399.6,1731.1 1303.8,1711.8 1213.7,1673.6C1126.6,1636.8 1048.4,1584.1 981.3,1516.9C914.2,1449.8 861.4,1371.6 824.6,1284.5C786.5,1194.4 767.1,1098.6 767.1,999.9C767.1,901.2 786.4,805.4 824.6,715.3C861.4,628.2 914.1,550 981.3,482.9C1048.4,415.8 1126.6,363 1213.7,326.2C1303.8,288.1 1399.6,268.7 1498.3,268.7C1597,268.7 1692.8,288 1782.9,326.2C1870,363 1948.2,415.7 2015.3,482.9C2082.4,550 2135.2,628.2 2172,715.3C2210.1,805.4 2229.5,901.2 2229.5,999.9C2229.5,1098.6 2210.2,1194.4 2172,1284.5C2135.2,1371.6 2082.5,1449.8 2015.3,1516.9C1948.2,1584 1870,1636.8 1782.9,1673.6C1692.8,1711.8 1597,1731.1 1498.3,1731.1ZM1498.3,289.5C1106.5,289.5 787.8,608.3 787.8,1000C787.8,1391.7 1106.6,1710.5 1498.3,1710.5C1890,1710.5 2208.8,1391.7 2208.8,1000C2208.8,608.3 1890.1,289.5 1498.3,289.5Z"
                  style="fill:rgb(30,30,30);fill-rule:nonzero;"/>
        </g>
        <g transform="matrix(0.0757396,6.45173e-21,-1.29035e-20,0.0757396,1386.48,924.168)">
            <g>
                <g>
                    <path d="M821.5,867C824.1,854.8 826.8,840.4 828.1,825.8C830.9,822.5 833.4,819.5 835.8,816.8C836.7,815.7 837.2,815.1 837.6,814.6C838.5,813.5 839,812.9 843.9,807.7C891.3,777 1072.3,629.1 1090.3,609.9C1119.8,578.5 1124.6,568.4 1128.8,559.5C1131.6,553.6 1134.3,548 1144.6,536.2C1162.7,515.5 1168.9,510 1189.5,497.3C1207.4,486.2 1221,477.2 1234.1,462.5C1237.8,458.3 1240.7,454.4 1243.5,450.7C1245.8,447.6 1248,444.7 1250.5,441.7C1255.4,435.9 1259.3,431.6 1264.7,428.5C1266.1,427.7 1267.3,427.3 1268.3,427.3C1269.6,427.3 1271.1,427.9 1272.9,429.3C1276.3,431.8 1279.1,435 1281.4,437.8C1294.3,453.5 1306.3,470.5 1317.8,487C1321.9,492.9 1326.1,498.8 1330.3,504.7C1335.4,511.8 1341.7,520.6 1348.7,527.9C1350.2,529.5 1352.3,531.3 1355,531.3C1357,531.3 1359,530.3 1361,528.1C1369.8,518.5 1380.8,505.5 1387.8,489.2C1396.4,469.4 1405.7,453.8 1423.3,442.1C1431.2,436.9 1436.5,431.6 1440.5,424.9C1443.9,419.3 1446.7,418.5 1448.7,418.5C1450.4,418.5 1452.3,419.1 1454.7,420.2C1458.8,422.2 1462.1,425.2 1465.6,428.4C1466.6,429.3 1467.6,430.2 1468.6,431.1C1469.8,432.2 1471,433.3 1472.2,434.5C1474.8,437 1477.4,439.5 1480.6,441.5C1483.1,443 1485.3,443.8 1487.5,443.8C1492.2,443.8 1495.4,440.4 1497.4,437.8C1499,435.8 1500.5,433 1502.1,429C1505.4,421 1507.9,411.8 1510.2,403.7L1510.3,403.4C1511.2,400.3 1512,397 1512.8,393.7C1515,385.2 1517.2,376.4 1520.2,369.4C1523.7,361.2 1526.3,360 1527.6,360C1528.7,360 1531.2,360.9 1535.2,366.8C1546.2,383.1 1555.5,402 1563.8,420C1567.7,428.4 1571.4,437.4 1574.9,446.1C1578.7,455.4 1582.6,465.1 1586.9,474.1C1597.3,496.1 1610,519.1 1626.8,546.7C1637.4,564.1 1649.4,583.8 1663.2,599.7C1668.5,605.9 1672.3,609.2 1676.6,609.2C1681.3,609.2 1685.3,605.2 1690.4,599.5C1703.6,584.9 1715.5,573.3 1727,564C1743.8,550.4 1756.5,535.6 1765.6,518.9C1767.8,514.9 1770.2,510.9 1773.2,508.1C1776.3,505.2 1778.9,503.8 1781.4,503.8C1783.9,503.8 1786.6,505.1 1789.9,507.9C1791.5,509.2 1793.1,511 1794.6,512.8C1795.8,514.1 1797,515.5 1798.2,516.7C1803.5,521.9 1808.3,524.3 1813.5,524.3C1816.9,524.3 1820.4,523.3 1824.2,521.1C1829.5,518.1 1833.3,513.8 1836.3,509.9C1846.1,497.3 1854.6,484.4 1861.6,471.7C1865,465.6 1867.7,462.7 1870.3,462.7C1872.8,462.7 1876.4,465.2 1881.4,470.6C1890.1,479.9 1897.7,491.4 1904,501.4C1910.9,512.3 1917.6,520.7 1928,531.3C1941.3,544.9 1949.8,557.7 1958.3,576.9C1958.7,577.8 1959,578.6 1959.4,579.3C1962,585.2 1963.5,588.7 1971.1,598C1998.6,631.6 2014,652.3 2042,690C2046.5,696.1 2051.3,702.6 2056.6,709.6C2073.6,732.4 2141.1,815.7 2166.3,842.7C2173.2,850.1 2173.8,852.1 2174.8,855.2C2175.1,856.2 2175.4,857.2 2176,858.6C2177.6,862.6 2177.6,864.8 2177.1,865.5C2176.8,866 2175.8,866 2175.3,866C2174.8,866 2174.2,865.9 2173.6,865.8C2172.5,865.6 2171.7,865.5 2171,865.5C2169.5,865.4 2169.5,865.4 2163.2,860.1L2162.4,859.5C2129.8,832.7 2066.1,749.2 2046.4,722C2017.7,682.5 1999,657.4 1976.4,629.7C1955.3,603.8 1951.2,596.8 1939.5,573C1933.7,561.1 1930.6,556.7 1924.1,549.6C1912.3,536.5 1902.1,524.5 1891.2,508.4C1890.1,506.8 1889,505.2 1888,503.6C1885.9,500.4 1883.9,497.5 1881.8,494.6C1880,492.1 1878.2,489.9 1875.4,489.9C1873,489.9 1871.1,491.7 1869.4,493.7C1866.1,497.5 1862.9,501.9 1859.8,506.2C1858.3,508.3 1856.8,510.3 1855.4,512.3C1851.5,517.5 1849.1,523.8 1848.4,530.9C1846.7,548.1 1848.2,565.1 1850.2,580.8C1850.6,583.9 1851.1,587 1851.5,590C1852.6,597.4 1853.7,605 1853.7,612C1853.6,621.2 1850.8,626.2 1843.6,629.6C1842.1,630.3 1840.6,630.6 1838.9,630.9C1837.9,631.1 1836.9,631.2 1835.8,631.5C1817.4,635.9 1806.7,645.1 1800.1,662.3C1799.6,663.5 1799.1,664.7 1798.5,665.9C1797.5,668 1796.3,670.4 1795.5,673.7C1795.1,675.2 1794.8,676.6 1794.4,677.8C1792,686.5 1791.3,690.8 1797.4,703C1815.6,739.5 1846.8,772.3 1869.8,793.3C1879.8,802.4 1891.9,812.1 1903.7,821.4C1909.7,826.1 1915.3,830.5 1920.4,834.8C1927.1,840.3 1930.7,845 1934.6,851.2C1937.3,855.5 1936.9,857.9 1935.5,860.3C1934.5,861.9 1934.1,861.9 1933.9,861.9C1933.1,861.9 1931.6,861.3 1930.6,860.8C1925,858.3 1921.7,855.6 1915.1,850.4L1914.9,850.2C1898.3,837 1880.2,821.5 1866.4,808.6C1835.1,779.4 1805.3,742.7 1784.7,707.7C1777.3,695.1 1775.3,692.2 1768.5,684.6C1757.6,672.3 1750.3,663 1742.7,648.8C1738.2,640.4 1737.6,632.1 1740.8,621.1C1742.6,615 1746.6,609.8 1750.1,605.2C1762,589.6 1769.3,573.7 1772.3,556.4C1772.4,555.6 1772.5,554.7 1772.5,554C1772.5,553.8 1772.6,553.5 1772.6,553.3C1772.9,552 1773.4,549.2 1771,547.7C1770.4,547.3 1769.6,547.1 1768.9,547.1C1767,547.1 1765.9,548.5 1765.2,549.3C1765.1,549.5 1764.9,549.7 1764.8,549.8C1761.7,552.5 1759,555.4 1756.1,558.4L1754.8,559.8C1745.6,569.4 1735.9,578.5 1726.4,587.2C1715.1,597.7 1703.4,608.5 1692.5,620.6C1680.1,634.3 1664.5,652.9 1654.6,675.5C1653.9,677.1 1653.2,678.7 1652.5,680.4C1651.1,683.7 1649.6,687.2 1648.1,690.3C1642,703.4 1633.8,718.2 1619,728.7C1610.2,735 1603.4,742.6 1596.8,753.3C1590.2,764 1582.9,775 1571.8,782.3C1567.8,784.9 1565.1,786 1561.9,786C1560.9,786 1559.9,785.9 1558.9,785.7C1557.4,785.4 1556.2,784.6 1555.6,783.5C1554.6,781.8 1554.6,779.3 1555.5,776.7C1556.6,773.6 1558.9,770.4 1562,767.9C1571.8,759.8 1580.2,750.5 1588.4,738.5C1594.8,729.1 1602.4,721.2 1613.1,712.9C1620.9,706.8 1627,699.5 1632.3,689.8C1636,682.9 1639.3,675.4 1642.5,668L1643.8,665.1C1648.4,654.6 1653.4,645.3 1658.9,637.5C1664.9,628.9 1663.7,624.1 1658.7,616.7C1658.2,615.9 1657.6,615.3 1657,614.6L1656.5,614.1C1639.9,595 1626.2,576 1613.5,554.2C1599.5,530.3 1583.4,501.8 1571,471.8C1570,469.4 1569,466.9 1568,464.5C1562.6,451.5 1557.1,438.1 1551,425.8C1550.7,425.2 1550.5,424.5 1550.2,423.6C1549.3,420.9 1548,416.9 1544,416.9C1543.4,416.9 1542.9,417 1542.3,417.2C1538.4,418.4 1538.6,423.2 1538.7,426.8C1538.7,427.7 1538.8,428.5 1538.7,429.3C1538.2,441.2 1537,459 1531.6,475.5C1527.2,489.3 1526.9,501.7 1530.8,514.6C1533,521.8 1532,525 1526.5,529.8C1525.3,530.9 1523.8,531.6 1522.3,532.4C1521.8,532.7 1521.3,532.9 1520.8,533.2C1517.3,535.1 1513.9,536.4 1510.2,537.7C1508.2,538.4 1506.1,539.2 1503.9,540.1C1497.1,542.9 1492.6,547.9 1490,555.4C1488.8,558.9 1487.8,562.8 1486.9,566.6C1486.2,569.3 1485.6,571.8 1484.9,574.2C1483.3,579.6 1481.6,584.8 1478.2,588.7C1476.4,590.7 1474.9,591.7 1473.5,591.7C1472,591.7 1470.4,590.5 1468.6,588.2C1465.7,584.6 1463.4,579.8 1461.5,573.5C1456,555.5 1450.5,536.2 1448.7,516L1448.7,515.2C1448.6,513.6 1448.5,510.3 1445.2,509.2C1444.8,509.1 1444.4,509 1444,509C1441.5,509 1440.3,511.3 1439.6,512.5L1439.5,512.7C1434.9,521.3 1428,526.6 1417.2,529.9C1406.8,533.1 1398.9,536.9 1390.8,542.5C1381,549.3 1372.7,553.8 1364,557.3C1360.1,558.9 1357.3,561.1 1354.7,564.8C1349.1,572.7 1344,581.4 1339.1,589.8L1336.4,594.4C1328.5,607.8 1321.1,620.5 1310.7,631.3C1307.4,634.8 1305.1,637 1301.2,637.9C1300.6,638 1300.1,638.1 1299.6,638.1C1298.5,638.1 1297.7,637.8 1297,637C1295.7,635.6 1295.2,632.8 1295.5,629.7C1295.7,627.7 1296.6,625.6 1297.7,624.2C1309.7,609.2 1320,592.7 1329.9,576.8C1333.8,570.6 1337.8,564.1 1341.9,557.9C1345.5,552.3 1344,547.9 1342,545.1L1341.8,544.8C1331.6,530.5 1321,515.7 1308.8,502.6C1307.5,501.2 1305.8,499.7 1303.6,499.7C1301.8,499.7 1300.2,500.6 1299.1,501.5C1287.1,510.1 1275.7,521.5 1263.4,537.2C1258.6,543.3 1254.6,549.9 1250.8,556.1C1248.5,559.8 1246.4,563.3 1244.1,566.8C1239.7,573.4 1236.3,574.2 1233.4,574.2C1231.1,574.2 1228.4,573.5 1224.9,572.1C1223.7,571.6 1222.5,570.9 1221.2,570.2C1220.1,569.5 1218.9,568.9 1217.6,568.3C1216.4,567.7 1215.2,567.1 1214,566.4C1211.8,565.1 1209.4,563.8 1206.5,562.9C1204.9,562.4 1203.7,562.2 1202.6,562.2C1200.3,562.2 1198.3,563.1 1196,565.1C1189.9,570.3 1187.1,575.8 1184.5,581.1C1182.2,585.7 1179.8,590.4 1175.1,595.2C1169.4,601 1166.7,605.8 1164.5,609.7C1160.1,617.4 1158.3,620.6 1137.1,620.6C1134.4,620.6 1131.4,620.5 1128,620.4L1127.8,620.4C1114.3,620.4 1050.8,667.5 1000.5,707.8C931.7,761.7 865.8,820.8 821.5,867ZM1791.8,533.8C1787.7,533.8 1787.3,538.6 1787.1,541.1C1786.7,546.8 1786.5,552.5 1786.4,558C1786.2,566 1786,574.2 1784.9,582.2C1783.7,590.6 1781,597.5 1776.6,603.3C1773.4,607.6 1770.1,612.3 1766.8,617.4C1764.5,621.1 1762.1,625.9 1762.3,633.6L1762.3,633.8C1762.3,634.4 1762.4,636 1762.9,637.6C1765.7,647.5 1770,656.3 1775.7,663.8C1777,665.5 1779.1,667.9 1782.2,667.9C1785.1,667.9 1787.4,665.7 1788.8,664C1791.5,661 1793.2,657.2 1794.8,653.7C1797.9,646.7 1801.2,639.4 1805.6,632.8C1814.8,618.9 1827.8,615.4 1839.3,613.8C1841.6,613.5 1843.8,613.2 1845.2,611.4C1846.5,609.6 1846.3,607.3 1845.7,604C1843.8,592.4 1841.5,578.7 1838.9,565C1835.8,549 1827,544.6 1820,543.7C1810.4,542.5 1802.8,539.8 1796.1,535.3C1794.2,534.3 1793,533.8 1791.8,533.8ZM1266.8,448.9C1263.7,448.9 1260.6,450.4 1257.6,453.5C1252.3,458.9 1248,465.5 1243.8,471.8C1242.2,474.2 1240.5,476.8 1238.8,479.2C1228.2,494.2 1217,504.7 1204.6,511.2C1192,517.8 1180.8,527.5 1169.3,541.6C1157.2,556.5 1144,571.8 1127.8,589.5C1126.8,590.6 1125.7,591.8 1124.7,593.2C1123.6,594.7 1122.2,597 1123,599.4C1123.8,601.9 1126.5,602.8 1127.4,603.1C1129.5,603.8 1131.6,604.1 1133.7,604.1C1134.2,604.1 1134.6,604.1 1135,604L1136.4,604C1149.2,604 1157.9,594.6 1165,585.8C1168.1,582 1171.1,577.9 1174,574C1179.2,566.9 1184.6,559.6 1190.7,553.6C1192.5,551.9 1194.5,549.9 1196.6,548C1200.2,544.9 1203.6,543.4 1207.2,543.4C1210.1,543.4 1213.1,544.4 1216.2,546.5L1218.2,547.8C1220.7,549.5 1223.2,551.2 1225.9,552.7C1228.6,554.2 1231,554.9 1233.2,554.9C1237.3,554.9 1240.8,552.5 1243.9,547.7C1247.4,542.3 1250.7,536.6 1254,531.2C1255.6,528.5 1257.2,525.7 1258.9,523C1265.3,512.3 1273.3,503.1 1281,494.2C1282.8,492.1 1284.7,489.9 1286.5,487.8C1287.1,487.1 1287.7,486.4 1288.3,485.7C1289.1,484.6 1289.9,483.6 1290.8,482.7C1292.9,480.3 1293.1,477.7 1291.4,474.8C1287.2,467.8 1282.1,459.8 1275.9,453.4C1272.9,450.4 1269.9,448.9 1266.8,448.9ZM1449.2,484.8C1457.2,484.8 1463.1,492.7 1464.1,504.9L1464.2,505.5C1464.4,507.8 1464.6,510.2 1464.3,512.2C1463,521.4 1465.7,529 1469.1,537.3C1471.1,542.2 1473.8,543.3 1475.7,543.3C1477.8,543.3 1479.8,542 1481.4,539.5C1487.5,530.1 1495.3,523.3 1505.9,517.9C1512.6,514.5 1514.2,507 1514.9,499.4C1515.1,497.4 1515.2,495.3 1515.4,493.3C1515.9,486.4 1516.3,479.9 1518.7,473.8C1519,473.1 1519.2,472.4 1519.5,471.7C1520.1,470.1 1520.6,468.7 1521.3,467.3C1526.2,457.2 1525.7,446.4 1525.2,435.9C1525.1,432.8 1524.9,429.6 1524.9,426.5L1524.9,421.6L1520.8,424.3C1517.5,426.4 1516.5,429.2 1515.7,431.2C1515.6,431.5 1515.5,431.9 1515.3,432.2C1514.7,433.8 1514.1,435.3 1513.4,436.9C1511.4,441.9 1509.6,446.7 1507,451C1502.7,458.2 1498.1,461.6 1492.6,461.6C1490.3,461.6 1487.7,461 1484.9,459.7C1475.8,455.7 1467.7,448.4 1460.8,441.8C1458.3,439.5 1456.6,437.8 1454.2,437.8C1451.7,437.8 1449.9,439.7 1447.6,442.1C1443.4,446.5 1438.7,449.9 1433.8,453.6C1432.5,454.6 1431.2,455.5 1430,456.5C1416.1,467.1 1405.9,482.9 1399.1,504.7C1398.5,506.6 1398.1,508.6 1399.2,510.1C1399.6,510.6 1400.5,511.6 1402.3,511.6C1402.9,511.6 1403.6,511.5 1404.4,511.3C1409.8,509.9 1414.9,508.7 1419.8,507.8C1423.6,507.1 1426.5,504.9 1428.8,501.1C1431.4,496.8 1435,491.5 1439.8,488.2C1442.9,485.9 1446.1,484.8 1449.2,484.8Z"
                          style="fill:rgb(30,30,30);fill-rule:nonzero;"/>
                </g>
            </g>
            <g>
                <g>
                    <path d="M884.4,934.4C883,934.4 882,934.1 881.7,933.7C881.3,933.1 881.3,931 883.5,926.9C884.2,925.6 884.6,924.6 885,923.7C886.3,920.8 887.1,918.9 894.8,912.3C922.9,888.4 999.6,813.4 1019,792.7C1025,786.3 1030.6,780.4 1035.7,774.9C1067.8,740.7 1085.4,721.9 1116.6,691.7C1125.2,683.3 1127.2,680 1130.4,674.4C1130.8,673.7 1131.3,672.9 1131.7,672.1C1142.4,654 1152.3,642.3 1167.1,630.3C1175.7,623.3 1182.1,617.4 1188.1,610.7C1188.3,610.8 1189.1,611 1189.1,611C1191.1,615.2 1193.6,619 1196.6,622.5C1188.7,630.9 1180.3,638.8 1169,648.8C1161.8,655.1 1158.2,659.1 1151,670.3C1136.7,692.7 1131.8,699.1 1107.8,722.4C1082.3,747.3 1060.8,770.1 1027.7,806.1C1005,830.8 932,906.6 896.7,929.4L895.9,929.9C889.5,934 889,934.3 888,934.3L884.9,934.3C884.9,934.4 884.6,934.4 884.4,934.4Z"
                          style="fill:rgb(30,30,30);fill-rule:nonzero;"/>
                </g>
            </g>
            <g>
                <g>
                    <path d="M1540.8,961.9C1536.4,961.9 1533.3,960 1529.8,957C1519.6,948.4 1513.6,936.6 1508.3,925.3C1503,913.9 1497,905.6 1489,898.3C1475.6,886.2 1469.1,870.5 1464.5,856.8C1463.4,853.5 1462.3,850 1461.3,846.5C1460.8,844.8 1460.3,843 1459.8,841.4C1452.5,817.8 1439.2,797.6 1428.4,782.5C1418.9,769.3 1408.5,757.2 1398.5,745.4C1396.9,743.6 1395.3,741.7 1393.8,739.9C1399,738 1404,735.2 1408.5,731.8C1416.2,740.5 1424.1,750.5 1432.4,762.3C1437.1,768.9 1440.8,773.6 1445.9,773.6C1449.9,773.6 1453.9,770.7 1459.4,765.6C1474.9,751.3 1489.1,733.2 1501.6,717.1C1505.2,712.5 1508.9,707.7 1512.8,702.5C1516.7,706.2 1520.5,709.8 1524,713C1521.1,717 1518,721.1 1514.7,725.5C1499.5,745.6 1483.8,763 1465.1,780L1464.6,780.5C1463.9,781.1 1463.3,781.7 1462.7,782.4C1456.9,789.2 1455.1,793.8 1460.1,803C1464.6,811.4 1468.6,821.2 1471.9,832.1L1472.8,835.1C1475.1,842.7 1477.5,850.6 1480.5,857.9C1484.6,868.2 1489.9,876.2 1496.9,883.1C1506.6,892.6 1513.2,901.3 1518.5,911.4C1525.2,924.2 1532.5,934.5 1541.3,943.6C1544.1,946.5 1546,949.8 1546.8,953.1C1547.4,955.7 1547.1,958.3 1545.9,959.8C1545.1,960.9 1543.9,961.5 1542.3,961.6C1541.7,961.9 1541.2,961.9 1540.8,961.9Z"
                          style="fill:rgb(30,30,30);fill-rule:nonzero;"/>
                </g>
            </g>
            <g>
                <g>
                    <path d="M1124.1,957.8C1123.7,957.8 1123.3,957.8 1122.5,956C1121.4,953.5 1121.2,951 1124.4,947.1C1129,941.4 1133.1,937.1 1140.4,932.4C1146,928.8 1152.1,925 1158.5,921C1171.3,913.1 1184.5,904.9 1195.4,897C1220.6,878.7 1255.4,849.8 1277.7,815.6C1285.2,804.1 1284.9,799.7 1283.5,790.9C1283.3,789.6 1283.1,788.2 1282.9,786.7C1282.5,783.4 1281.6,780.8 1280.8,778.6C1280.4,777.3 1279.9,776.2 1279.6,774.9C1275,757.1 1265.5,746.7 1247.7,740.2C1246.6,739.8 1245.6,739.5 1244.7,739.2C1243,738.7 1241.6,738.3 1240.2,737.4C1233.5,733.1 1231.2,727.9 1232.2,718.7C1232.9,711.6 1234.9,704.2 1236.9,697.1C1237.7,694.1 1238.5,691.1 1239.3,688.1C1242.8,673.8 1246.1,658.3 1246.7,642.2C1254.3,642.6 1261.8,642.9 1269.2,643.2C1274.5,645.5 1280,647.8 1285.9,650.3L1285.9,653.7C1282.1,654.5 1278,654.9 1273.6,655C1266.6,655.1 1257.3,658.4 1252.4,674C1248.2,687.4 1244.4,700.7 1241.1,712C1240.2,715.2 1239.6,717.5 1240.7,719.4C1241.8,721.3 1244,721.9 1246.2,722.5C1257.4,725.4 1269.9,730.4 1277.4,745.2C1281,752.2 1283.5,759.9 1285.7,767.2C1286.8,770.9 1288.2,774.8 1290.5,778.2C1291.9,780.2 1294.1,782.8 1297.3,782.8C1300,782.8 1302.2,780.9 1303.5,779.5C1310,772.7 1315.3,764.5 1319.2,754.9C1319.8,753.4 1320.1,751.8 1320.2,751.2L1320.2,751C1321.3,743.4 1319.5,738.3 1317.6,734.4C1315,729 1312.3,723.9 1309.5,719.3C1305.8,713 1303.9,705.8 1303.6,697.4L1303.6,692.5C1310.1,698.6 1318,702.8 1326.5,704.9C1329,711.3 1332.1,717.7 1335.9,724C1338.9,729 1342.2,734.6 1343.3,740.9C1345.2,752.2 1343.7,760.3 1338.2,768.2C1329,781.4 1320.7,789.9 1308.4,800.8C1300.7,807.7 1298.5,810.2 1289.6,821.9C1265.1,854.3 1231.4,887.4 1196.9,912.8C1181.7,924 1161.9,937.4 1143.9,948.6L1143.6,948.8C1136.4,953.3 1132.8,955.5 1127,957.4C1126.3,957.4 1125,957.8 1124.1,957.8Z"
                          style="fill:rgb(30,30,30);fill-rule:nonzero;"/>
                </g>
            </g>
        </g>
        <g transform="matrix(0.0757396,6.45173e-21,-1.29035e-20,0.0757396,1386.48,924.168)">
            <path d="M1498.3,1699.7C1403.8,1699.7 1312.2,1681.2 1225.9,1644.7C1142.6,1609.5 1067.7,1559 1003.5,1494.7C939.2,1430.4 888.8,1355.6 853.5,1272.3C817,1186 798.5,1094.4 798.5,999.9C798.5,905.4 817,813.8 853.5,727.5C888.7,644.2 939.2,569.3 1003.5,505.1C1067.8,440.8 1142.6,390.4 1225.9,355.1C1312.2,318.6 1403.8,300.1 1498.3,300.1C1592.8,300.1 1684.4,318.6 1770.7,355.1C1854,390.3 1928.9,440.8 1993.1,505.1C2057.4,569.4 2107.8,644.2 2143.1,727.5C2179.6,813.8 2198.1,905.4 2198.1,999.9C2198.1,1094.4 2179.6,1186 2143.1,1272.3C2107.9,1355.6 2057.4,1430.5 1993.1,1494.7C1928.8,1559 1854,1609.4 1770.7,1644.7C1684.4,1681.2 1592.8,1699.7 1498.3,1699.7ZM1498.3,320.9C1123.8,320.9 819.2,625.5 819.2,1000C819.2,1374.5 1123.8,1679.1 1498.3,1679.1C1872.8,1679.1 2177.4,1374.5 2177.4,1000C2177.4,625.5 1872.8,320.9 1498.3,320.9Z"
                  style="fill:rgb(30,30,30);fill-rule:nonzero;"/>
        </g>
        <g transform="matrix(0.0757396,6.45173e-21,-1.29035e-20,0.0757396,1386.48,924.168)">
            <g>
                <path d="M2306.6,1370.1C1772.6,1281.3 1227.5,1281.3 693.5,1370.1C672.3,1373.7 655.1,1359.4 655.1,1337.9L655.1,1014C655.1,992.6 672.4,975.2 693.8,975.3L2306.4,975.3C2327.8,975.2 2345.1,992.6 2345.1,1014L2345.1,1337.9C2345,1359.3 2327.8,1373.7 2306.6,1370.1Z"
                      style="fill:rgb(30,30,30);fill-rule:nonzero;"/>
            </g>
            <g>
                <g>
                    <path d="M2309.5,1354.9C2308.3,1354.9 2307.1,1354.8 2305.8,1354.6C2038.5,1312.4 1769.2,1291.2 1500,1291.2C1230.7,1291.2 961.5,1312.3 694.2,1354.6C687.9,1355.6 682,1354 677.5,1350.2C673.1,1346.4 670.6,1340.9 670.6,1334.7L670.7,1013.5C670.7,1000.9 681,990.6 693.7,990.5C961.2,988.3 1230.6,987.2 1500,987.2C1769.4,987.2 2038.8,988.3 2306.3,990.5C2319,990.6 2329.3,1000.9 2329.3,1013.5L2329.4,1334.6C2329.4,1340.8 2327,1346.3 2322.5,1350.1C2319,1353.3 2314.4,1354.9 2309.5,1354.9ZM1500,996.1C1230.6,996.1 961.2,997.2 693.7,999.4C685.9,999.5 679.5,1005.8 679.5,1013.6L679.4,1334.8C679.4,1338.3 680.7,1341.4 683.2,1343.5C685.7,1345.6 689.1,1346.5 692.8,1345.9C1228.4,1261.3 1771.6,1261.3 2307.3,1345.9C2311,1346.5 2314.4,1345.6 2316.9,1343.5C2319.3,1341.4 2320.7,1338.3 2320.7,1334.8L2320.6,1013.6C2320.6,1005.8 2314.2,999.5 2306.4,999.4C2038.8,997.3 1769.4,996.1 1500,996.1Z"
                          style="fill:white;fill-rule:nonzero;"/>
                </g>
            </g>
        </g>
        <g transform="matrix(0.0757396,6.45173e-21,-1.29035e-20,0.0757396,1386.48,924.168)">
            <path d="M1178.5,1376.8C1179.1,1377.2 1179.4,1378 1179.2,1378.8L1163.6,1429.8L1208.8,1401.4C1209.5,1401 1210.3,1401.1 1210.9,1401.5L1221.3,1409.5C1222.2,1410.2 1222.4,1411.2 1221.7,1412.2L1159.1,1494.3C1158.4,1495.2 1157.4,1495.4 1156.4,1494.7L1145.6,1486.5C1144.7,1485.8 1144.5,1484.8 1145.2,1483.8L1178.3,1440.1L1154.3,1455.2C1153.6,1455.6 1152.8,1455.5 1152.2,1455.1L1142.3,1447.6C1141.7,1447.2 1141.4,1446.4 1141.6,1445.6L1149.8,1418.5L1116.5,1462.1C1115.8,1463 1114.8,1463.2 1113.8,1462.5L1102.8,1454.1C1101.9,1453.4 1101.7,1452.4 1102.4,1451.4L1165,1369.3C1165.7,1368.4 1166.7,1368.2 1167.7,1368.9L1178.5,1376.8Z"
                  style="fill:rgb(30,30,30);fill-rule:nonzero;"/>
            <path d="M1190.6,1489.3L1219.9,1436.7C1225.5,1426.6 1237.6,1419.9 1250.5,1427L1260.6,1432.6C1273.6,1439.8 1274,1453.6 1268.4,1463.6L1239.1,1516.2C1233.4,1526.4 1221.6,1533.3 1208.6,1526.1L1198.5,1520.5C1185.6,1513.4 1185,1499.5 1190.6,1489.3ZM1207.6,1494.5C1204.1,1500.7 1204.8,1504.9 1211.5,1508.7C1219.5,1513.2 1221.5,1512.3 1225.8,1504.6L1251.3,1458.7C1255.6,1451.1 1255.3,1448.9 1247.2,1444.4C1240.4,1440.6 1236.6,1442.2 1233,1448.5L1207.6,1494.5Z"
                  style="fill:rgb(30,30,30);fill-rule:nonzero;"/>
            <path d="M1319.2,1460.1C1329.2,1464.1 1332.9,1474.6 1329.5,1483.2L1319.6,1508C1318.4,1511 1316.6,1513.6 1313.9,1515.6C1314.5,1518.8 1314,1521.9 1312.8,1525.1L1302.9,1549.9C1299.5,1558.4 1289.6,1563.6 1279.6,1559.6L1249.4,1547.6C1248.3,1547.2 1247.9,1546.2 1248.3,1545.1L1286.5,1449.2C1286.9,1448.1 1287.9,1447.7 1289,1448.1L1319.2,1460.1ZM1295.5,1522.1C1296.4,1519.8 1295.3,1517.1 1293.2,1516.3L1280.5,1511.2L1270,1537.6L1282.7,1542.7C1284.7,1543.5 1287.4,1542.2 1288.2,1540.2L1295.5,1522.1ZM1297.2,1469.4L1286.7,1495.8L1299.4,1500.9C1301.4,1501.7 1304.1,1500.4 1305,1498.3L1312.2,1480.1C1313.1,1477.9 1311.9,1475.3 1309.9,1474.5L1297.2,1469.4Z"
                  style="fill:rgb(30,30,30);fill-rule:nonzero;"/>
            <path d="M1335,1576.1C1334.7,1577.2 1333.8,1577.7 1332.7,1577.4L1319.4,1573.5C1318.3,1573.2 1317.8,1572.3 1318.1,1571.2L1346.8,1472.1C1347.1,1471 1348,1470.5 1349.1,1470.8L1362.4,1474.7C1363.5,1475 1364,1475.9 1363.7,1477L1335,1576.1Z"
                  style="fill:rgb(30,30,30);fill-rule:nonzero;"/>
            <path d="M1405,1576.7C1406.1,1576.9 1406.7,1577.8 1406.5,1578.9L1404,1591.6C1403.8,1592.7 1402.9,1593.3 1401.8,1593.1L1357,1584.4C1355.9,1584.2 1355.3,1583.3 1355.5,1582.2L1375.4,1480.9C1375.6,1479.8 1376.5,1479.2 1377.6,1479.4L1390.6,1481.9C1391.7,1482.1 1392.3,1483 1392.1,1484.1L1375.5,1570.9L1405,1576.7Z"
                  style="fill:rgb(30,30,30);fill-rule:nonzero;"/>
            <path d="M1481.2,1508.4C1481.1,1509.6 1480.3,1510.2 1479.2,1510.2L1449.2,1508.1L1447.2,1536.6L1468.7,1538.1C1469.9,1538.2 1470.5,1539 1470.5,1540.1L1469.6,1552.9C1469.5,1554.1 1468.7,1554.7 1467.6,1554.7L1446.1,1553.2L1444.1,1581.6L1474,1583.9C1475.2,1584 1475.8,1584.8 1475.8,1585.9L1474.9,1598.7C1474.8,1599.9 1474,1600.5 1472.9,1600.5L1427.7,1597.3C1426.5,1597.2 1425.9,1596.4 1425.9,1595.3L1433.1,1492.3C1433.2,1491.1 1434,1490.5 1435.1,1490.5L1480.5,1493.7C1481.7,1493.8 1482.3,1494.6 1482.3,1495.7L1481.2,1508.4Z"
                  style="fill:rgb(30,30,30);fill-rule:nonzero;"/>
            <path d="M1564.6,1580.1L1565.8,1580C1571.3,1579.3 1573.1,1578.4 1573.8,1577.3C1574.2,1576.7 1574.3,1575.8 1574.5,1574.4C1574.5,1572.8 1574.2,1571.1 1574,1568.9C1573.7,1566.1 1573.6,1563.4 1572.9,1560.8L1572.9,1560.5C1572.8,1559.9 1572.4,1559.1 1572,1558.3L1571.3,1557.1L1538.5,1538.9L1537.9,1538.5C1537.7,1538.4 1537.6,1538.2 1537.6,1538.1L1536.8,1537.3C1534,1534.4 1530.8,1530.2 1530.3,1525.8L1528.9,1514.5C1527.5,1503.4 1535.5,1492.3 1548.2,1490.7L1557.6,1489.6C1571.6,1487.9 1582.8,1497.7 1584.3,1510L1585.9,1523.3C1586,1524.5 1585.4,1525.3 1584.2,1525.4L1569.9,1527.1C1569.3,1527.2 1569,1526.9 1568.9,1526.3L1568.8,1525.6C1568.5,1523.1 1568,1518.9 1566.8,1515C1565.7,1510.9 1564,1507.8 1562,1506.9C1560.4,1506.2 1558.4,1506.3 1555.9,1506.6C1546.5,1507.7 1545.4,1508.5 1546.4,1516.4C1546.6,1518.4 1546.7,1520.3 1547.3,1522.3L1547.3,1522.6C1547.4,1523.2 1547.7,1523.7 1548.1,1524.6L1549,1525.8L1581.4,1543.9C1581.6,1544 1581.6,1544 1581.7,1544.2L1582.3,1544.7L1582.5,1544.8L1583.3,1545.7C1586.1,1548.6 1589.3,1552.6 1589.8,1557.2L1591.6,1572.3C1592.9,1583.3 1585.4,1594.6 1572.3,1596.2L1562.9,1597.3C1548.9,1599 1537.7,1588.9 1536.2,1576.8L1534.6,1563.5C1534.5,1562.3 1535.1,1561.5 1536.3,1561.4L1549.6,1559.8C1550.8,1559.7 1551.6,1560.3 1551.7,1561.5L1552.9,1571.1C1554,1579.8 1555.5,1581.1 1564.6,1580.1Z"
                  style="fill:rgb(30,30,30);fill-rule:nonzero;"/>
            <path d="M1662,1577.9C1661,1578.2 1660.2,1577.8 1659.8,1577L1650.1,1557.1L1632.9,1561.6L1634.2,1583.7C1634.3,1584.6 1633.7,1585.3 1632.7,1585.6L1619.2,1589.1C1617.8,1589.5 1616.9,1588.8 1616.8,1587.3L1612.6,1481.7C1612.5,1480.8 1613.1,1480.1 1613.9,1479.8L1626.7,1476.4C1627.5,1476.2 1628.4,1476.6 1628.8,1477.4L1676.8,1571.5C1677.5,1572.8 1677,1573.9 1675.6,1574.2L1662,1577.9ZM1632.1,1544.5L1642,1541.9L1631.1,1520L1632.1,1544.5Z"
                  style="fill:rgb(30,30,30);fill-rule:nonzero;"/>
            <path d="M1727.1,1555.4L1716.3,1559.8C1702.7,1565.4 1691.5,1557.1 1687.1,1546.4L1656.1,1470.9C1655.7,1469.8 1656.1,1468.9 1657.1,1468.4L1669.6,1463.2C1670.7,1462.8 1671.6,1463.2 1672.1,1464.2L1701.7,1536.2C1704.4,1542.8 1708.1,1544.9 1715.3,1542C1723.8,1538.5 1724.3,1536.4 1721,1528.3L1691.3,1456.3C1690.9,1455.2 1691.3,1454.3 1692.3,1453.8L1704.8,1448.6C1705.9,1448.2 1706.8,1448.6 1707.3,1449.6L1738.3,1525.1C1742.7,1536.1 1740.7,1549.8 1727.1,1555.4Z"
                  style="fill:rgb(30,30,30);fill-rule:nonzero;"/>
            <path d="M1784.5,1476.4L1754,1424.5C1753.4,1423.5 1753.7,1422.5 1754.7,1421.9L1766.4,1415.1C1767.4,1414.5 1768.4,1414.8 1769,1415.8L1821.1,1504.9C1821.7,1505.9 1821.4,1506.9 1820.4,1507.5L1809.2,1514.1C1808.4,1514.5 1807.7,1514.5 1807.1,1514L1754.2,1474.3L1784.9,1526.1C1785.5,1527.1 1785.2,1528.1 1784.2,1528.7L1772.2,1535.7C1771.2,1536.3 1770.2,1536 1769.6,1535L1717.4,1446C1716.8,1445 1717.1,1444 1718.1,1443.4L1729.6,1436.7C1730.4,1436.3 1731.1,1436.3 1731.7,1436.8L1784.5,1476.4Z"
                  style="fill:rgb(30,30,30);fill-rule:nonzero;"/>
            <path d="M1879.7,1463.9C1878.9,1464.5 1878,1464.5 1877.3,1463.9L1860.4,1449.6L1846.5,1460.6L1856.6,1480.3C1857,1481.1 1856.8,1482 1856,1482.6L1845,1491.3C1843.9,1492.2 1842.7,1492 1842.1,1490.6L1795.9,1395.5C1795.5,1394.7 1795.7,1393.8 1796.4,1393.3L1806.8,1385.1C1807.5,1384.6 1808.4,1384.6 1809.1,1385.2L1890.9,1452.1C1892,1453.1 1892,1454.2 1890.9,1455.1L1879.7,1463.9ZM1838.9,1445.2L1846.9,1438.9L1828.2,1423.2L1838.9,1445.2Z"
                  style="fill:rgb(30,30,30);fill-rule:nonzero;"/>
        </g>
        <g transform="matrix(0.0757396,6.45173e-21,-1.29035e-20,0.0757396,1386.48,924.168)">
            <g>
                <path d="M1789.6,891.3L1170,891.3L1127.1,592.4L1789.6,592.4L1789.6,891.3Z"
                      style="fill:white;fill-rule:nonzero;"/>
                <path d="M1795.4,897.2L1164.9,897.2L1120.3,586.5L1795.4,586.5L1795.4,897.2ZM1175.1,885.5L1783.8,885.5L1783.8,598.2L1134,598.2L1175.1,885.5Z"
                      style="fill:rgb(30,30,30);fill-rule:nonzero;"/>
            </g>
            <g>
                <path d="M2024.1,910.4L1789.6,892.2L1789.6,868.7L2024.1,886.8L2024.1,910.4Z"
                      style="fill:white;fill-rule:nonzero;"/>
                <path d="M2029.9,916.7L1783.7,897.7L1783.7,862.4L2029.9,881.4L2029.9,916.7ZM1795.4,886.8L2018.2,904L2018.2,892.2L1795.4,875L1795.4,886.8Z"
                      style="fill:rgb(30,30,30);fill-rule:nonzero;"/>
            </g>
            <g>
                <rect x="1977.3" y="861.4" width="21.7" height="119.4" style="fill:white;"/>
                <path d="M2004.9,986.7L1971.5,986.7L1971.5,855.6L2004.9,855.6L2004.9,986.7ZM1983.2,975L1993.2,975L1993.2,867.3L1983.2,867.3L1983.2,975Z"
                      style="fill:rgb(30,30,30);fill-rule:nonzero;"/>
            </g>
            <g>
                <rect x="1059.6" y="568.8" width="771.8" height="23.6" style="fill:white;"/>
                <path d="M1837.2,598.2L1053.7,598.2L1053.7,562.9L1837.2,562.9L1837.2,598.2ZM1065.4,586.5L1825.5,586.5L1825.5,574.6L1065.4,574.6L1065.4,586.5Z"
                      style="fill:rgb(30,30,30);fill-rule:nonzero;"/>
            </g>
            <g>
                <rect x="1106" y="891.3" width="918" height="23.6" style="fill:white;"/>
                <path d="M2029.9,920.8L1100.1,920.8L1100.1,885.5L2029.9,885.5L2029.9,920.8ZM1111.9,909.1L2018.2,909.1L2018.2,897.2L1111.9,897.2L1111.9,909.1Z"
                      style="fill:rgb(30,30,30);fill-rule:nonzero;"/>
            </g>
            <g>
                <rect x="1386.6" y="914.9" width="21.7" height="28.6" style="fill:white;"/>
                <path d="M1414.2,949.4L1380.8,949.4L1380.8,909.1L1414.2,909.1L1414.2,949.4ZM1392.5,937.6L1402.5,937.6L1402.5,920.7L1392.5,920.7L1392.5,937.6Z"
                      style="fill:rgb(30,30,30);fill-rule:nonzero;"/>
            </g>
            <g>
                <g>
                    <rect x="1131.4" y="620.1" width="658.2" height="4.4" style="fill:rgb(30,30,30);"/>
                </g>
                <g>
                    <rect x="1135.9" y="650" width="653.7" height="4.4" style="fill:rgb(30,30,30);"/>
                </g>
                <g>
                    <rect x="1140.2" y="679.9" width="649.3" height="4.4" style="fill:rgb(30,30,30);"/>
                </g>
                <g>
                    <rect x="1144.4" y="709.8" width="645.2" height="4.4" style="fill:rgb(30,30,30);"/>
                </g>
                <g>
                    <rect x="1149.1" y="739.7" width="640.5" height="4.4" style="fill:rgb(30,30,30);"/>
                </g>
                <g>
                    <rect x="1153.3" y="769.5" width="636.3" height="4.4" style="fill:rgb(30,30,30);"/>
                </g>
                <g>
                    <rect x="1156.3" y="799.4" width="633.2" height="4.4" style="fill:rgb(30,30,30);"/>
                </g>
                <g>
                    <rect x="1162.1" y="829.3" width="627.5" height="4.4" style="fill:rgb(30,30,30);"/>
                </g>
                <g>
                    <rect x="1164.4" y="859.2" width="625.2" height="4.4" style="fill:rgb(30,30,30);"/>
                </g>
            </g>
            <g>
                <path d="M1332.9,474C1317.7,474 1305.4,476.9 1305.4,480.4L1305.4,568.8L1360.4,568.8L1360.4,480.4C1360.4,476.9 1348.1,474 1332.9,474Z"
                      style="fill:white;fill-rule:nonzero;"/>
                <path d="M1366.4,574.6L1299.6,574.6L1299.6,480.4C1299.6,469.7 1320.5,468.2 1333,468.2C1345.5,468.2 1366.4,469.8 1366.4,480.4L1366.4,574.6ZM1311.2,562.9L1354.6,562.9L1354.6,482.6C1351.6,481.4 1344,479.8 1332.9,479.8C1321.8,479.8 1314.2,481.4 1311.2,482.6L1311.2,562.9Z"
                      style="fill:rgb(30,30,30);fill-rule:nonzero;"/>
            </g>
            <g>
                <rect x="1767.8" y="592.4" width="21.7" height="298.3" style="fill:white;"/>
                <path d="M1795.4,896.5L1762,896.5L1762,586.5L1795.4,586.5L1795.4,896.5ZM1773.7,884.8L1783.7,884.8L1783.7,598.2L1773.7,598.2L1773.7,884.8Z"
                      style="fill:rgb(30,30,30);fill-rule:nonzero;"/>
            </g>
            <g>
                <rect x="1483.6" y="664.5" width="194.5" height="94.9" style="fill:white;"/>
                <path d="M1683.9,765.3L1477.7,765.3L1477.7,658.6L1683.9,658.6L1683.9,765.3ZM1489.4,753.5L1672.2,753.5L1672.2,670.3L1489.4,670.3L1489.4,753.5Z"
                      style="fill:rgb(30,30,30);fill-rule:nonzero;"/>
            </g>
            <g>
                <g>
                    <rect x="1498.8" y="679.7" width="164.1" height="64.5" style="fill:rgb(30,30,30);"/>
                </g>
                <g>
                    <path d="M1668.7,750.1L1492.9,750.1L1492.9,673.9L1668.7,673.9L1668.7,750.1ZM1504.6,738.4L1657,738.4L1657,685.6L1504.6,685.6L1504.6,738.4Z"
                          style="fill:rgb(30,30,30);fill-rule:nonzero;"/>
                </g>
            </g>
        </g>
        <g id="XMLID_1617_" transform="matrix(0.0757396,6.45173e-21,-1.29035e-20,0.0757396,1386.48,924.168)">
            <g id="XMLID_1_">
                <path d="M1370.5,975.9C1363,975.9 1355.6,974.4 1348.7,971.5C1342,968.7 1336.1,964.6 1330.9,959.5C1325.7,954.4 1321.7,948.4 1318.9,941.7C1316,934.8 1314.5,927.5 1314.5,919.9C1314.5,912.4 1316,905 1318.9,898.1C1321.7,891.4 1325.8,885.5 1330.9,880.3C1336,875.1 1342,871.1 1348.7,868.3C1355.6,865.4 1362.9,863.9 1370.5,863.9C1378,863.9 1385.4,865.4 1392.3,868.3C1399,871.1 1404.9,875.2 1410.1,880.3C1415.3,885.4 1419.3,891.4 1422.1,898.1C1425,905 1426.5,912.3 1426.5,919.9C1426.5,927.4 1425,934.8 1422.1,941.7C1419.3,948.4 1415.2,954.3 1410.1,959.5C1405,964.7 1399,968.7 1392.3,971.5C1385.4,974.4 1378.1,975.9 1370.5,975.9Z"
                      style="fill:white;fill-rule:nonzero;"/>
            </g>
            <g id="XMLID_1640_">
                <path d="M1370.5,980.3C1362.4,980.3 1354.5,978.7 1347,975.6C1339.8,972.6 1333.4,968.2 1327.8,962.7C1322.2,957.2 1317.9,950.7 1314.9,943.5C1311.8,936.1 1310.2,928.2 1310.2,920C1310.2,911.8 1311.8,904 1314.9,896.5C1317.9,889.3 1322.3,882.9 1327.8,877.3C1333.3,871.8 1339.8,867.4 1347,864.4C1354.4,861.3 1362.3,859.7 1370.5,859.7C1378.7,859.7 1386.5,861.3 1394,864.4C1401.2,867.4 1407.6,871.8 1413.2,877.3C1418.7,882.8 1423.1,889.3 1426.1,896.5C1429.2,903.9 1430.8,911.8 1430.8,920C1430.8,928.2 1429.2,936 1426.1,943.5C1423.1,950.7 1418.7,957.1 1413.2,962.7C1407.7,968.2 1401.2,972.6 1394,975.6C1386.6,978.7 1378.7,980.3 1370.5,980.3ZM1370.5,876.9C1346.7,876.9 1327.4,896.2 1327.4,920C1327.4,943.8 1346.7,963.1 1370.5,963.1C1394.3,963.1 1413.6,943.8 1413.6,920C1413.6,896.2 1394.3,876.9 1370.5,876.9Z"
                      style="fill:rgb(30,30,30);fill-rule:nonzero;"/>
            </g>
            <g id="XMLID_1621_">
                <g>
                    <path d="M1370.7,914.5C1368,914.5 1365.8,916.7 1365.8,919.4C1365.8,922.1 1368,924.3 1370.7,924.3C1373.4,924.3 1375.6,922.1 1375.6,919.4C1375.6,916.7 1373.4,914.5 1370.7,914.5ZM1378.9,923.6L1397.6,941.8C1402.7,935.7 1405.7,927.9 1405.7,919.4L1405.7,918L1379.6,921.8C1379.8,921 1379.9,920.2 1379.9,919.4C1379.9,916.9 1378.9,914.6 1377.3,912.9L1400.4,900.8C1395.7,893.4 1388.4,887.8 1379.6,885.5L1375.2,911.3C1373.8,910.5 1372.3,910.1 1370.6,910.1C1368.9,910.1 1367.2,910.6 1365.8,911.4L1361.4,885.5C1352.7,887.8 1345.3,893.5 1340.7,900.9L1363.8,913C1362.2,914.7 1361.3,916.9 1361.3,919.4C1361.3,920.3 1361.4,921.2 1361.7,922.1L1335.6,918.3L1335.6,919.5C1335.6,928.1 1338.7,936 1343.9,942.1L1362.5,923.9C1364,926.6 1366.8,928.5 1370.1,928.7L1358.4,952.3C1362.2,953.7 1366.4,954.5 1370.7,954.5C1375.1,954.5 1379.3,953.7 1383.2,952.2L1371.6,928.7C1374.7,928.3 1377.4,926.4 1378.9,923.6ZM1370.7,926.1C1367,926.1 1364,923.1 1364,919.4C1364,915.7 1367,912.7 1370.7,912.7C1374.4,912.7 1377.4,915.7 1377.4,919.4C1377.3,923.1 1374.3,926.1 1370.7,926.1Z"
                          style="fill:rgb(30,30,30);fill-rule:nonzero;"/>
                </g>
            </g>
            <g id="XMLID_1618_">
                <path d="M1370.5,959.8C1359.8,959.8 1349.8,955.6 1342.2,948.1C1334.6,940.5 1330.5,930.5 1330.5,919.8C1330.5,909.1 1334.7,899.1 1342.2,891.5C1349.7,883.9 1359.8,879.8 1370.5,879.8C1381.2,879.8 1391.2,884 1398.8,891.5C1406.4,899 1410.5,909.1 1410.5,919.8C1410.5,930.5 1406.3,940.5 1398.8,948.1C1391.3,955.6 1381.2,959.8 1370.5,959.8ZM1370.5,881.5C1349.4,881.5 1332.2,898.7 1332.2,919.8C1332.2,940.9 1349.4,958.1 1370.5,958.1C1391.6,958.1 1408.8,940.9 1408.8,919.8C1408.8,898.7 1391.6,881.5 1370.5,881.5Z"
                      style="fill:rgb(30,30,30);fill-rule:nonzero;"/>
            </g>
        </g>
        <g transform="matrix(0.0757396,6.45173e-21,-1.29035e-20,0.0757396,1386.48,924.168)">
            <g>
                <g>
                    <path d="M761.6,1307.7C757.3,1307.7 753.1,1306.2 749.9,1303.3C745.9,1299.9 743.7,1294.9 743.7,1289.7L743.7,1033.9C743.7,1024.1 751.6,1016.1 761.4,1015.9C782.1,1015.6 802.7,1015.2 823.4,1014.9C825.3,1014.8 827.1,1014.8 828.9,1014.8C855.6,1014.8 877.4,1023.2 893.8,1039.7C913.4,1059.5 923.6,1090 923.2,1127.8L923.1,1166.6C923.2,1201.2 916.1,1230 902,1252.1C884.9,1278.9 858.6,1294.7 823.9,1299.1C804.2,1301.8 784.1,1304.6 764.3,1307.5C763.3,1307.6 762.5,1307.7 761.6,1307.7ZM823.9,1226.8C833.9,1223.6 842.1,1212.3 841.6,1172.4C841.6,1172.3 841.7,1128.8 841.7,1128.7C842.3,1102.8 837,1093.5 833.9,1090.3C832.4,1088.8 829.9,1087 824.2,1087L824,1087L823.9,1226.8Z"
                          style="fill:rgb(30,30,30);fill-rule:nonzero;"/>
                </g>
            </g>
            <g>
                <g>
                    <path d="M970.4,1266.7C954,1266.7 938.7,1260.2 927.5,1248.4C915.4,1235.7 908.9,1217.8 909.7,1199.3L909.7,1198.3C910,1170.2 922.8,1149.8 941.4,1136.5C939.6,1136.6 937.6,1136.7 935.6,1136.8L934.7,1136.8C930.1,1136.8 925.7,1135 922.3,1131.8C918.7,1128.4 916.7,1123.7 916.7,1118.8L916.7,1117.9C917.1,1075.6 949.1,1046.4 996.5,1045.3L999.3,1045.3C1023.5,1045.3 1044.2,1052.9 1057.6,1066.6C1068.7,1078 1074.4,1093.3 1074,1110.8L1073.7,1200.9C1073.7,1210.4 1074.1,1230 1074.7,1236.4C1075.2,1241.2 1073.7,1245.9 1070.6,1249.6C1067.5,1253.3 1063.1,1255.6 1058.3,1256C1042.3,1257.3 1034.5,1258 1018.5,1259.5C1018,1259.5 1017.4,1259.6 1016.9,1259.6C1013.6,1259.6 1010.5,1258.7 1007.9,1257.2C999.1,1262.1 988.7,1265.2 977.4,1266.4C974.8,1266.6 972.6,1266.7 970.4,1266.7ZM995.2,1183.7C992.9,1184.5 991,1185.6 989.7,1187C988.8,1187.9 988,1189.2 988.2,1191.8L988.2,1193.8C988.2,1194.7 988.3,1195.5 988.4,1196.1L988.5,1196.1C990.8,1195.9 991.9,1195.4 993.1,1192.8C994.2,1190.4 994.9,1187.3 995.2,1183.7Z"
                          style="fill:rgb(30,30,30);fill-rule:nonzero;"/>
                </g>
            </g>
            <g>
                <g>
                    <path d="M1092.5,1253.2C1088,1253.2 1083.6,1251.5 1080.3,1248.4C1076.6,1245 1074.5,1240.2 1074.6,1235.2L1075,1114.6C1075,1111.1 1075,1107.5 1075.1,1104C1075.2,1091 1075.3,1077.6 1074.8,1064.7C1074.6,1059.9 1076.4,1055.2 1079.7,1051.7C1083,1048.2 1087.6,1046.2 1092.4,1046.1C1109.2,1045.8 1117.6,1045.6 1134.4,1045.3L1134.7,1045.3C1138.6,1045.3 1142.2,1046.5 1145.2,1048.7C1154.3,1044.3 1164.7,1041.9 1175.7,1041.9L1176.3,1041.9C1193.7,1041.9 1205.7,1046.9 1213.9,1053.3C1225.4,1045.6 1239.8,1041.2 1255.6,1040.7L1257.6,1040.7C1275.4,1040.7 1291.5,1047.3 1303,1059.2C1314.1,1070.8 1319.9,1086.7 1319.3,1104L1319,1223.4C1319,1233 1311.4,1240.9 1301.7,1241.3C1284.2,1242 1275.7,1242.3 1258.2,1243.2L1257.4,1243.2C1252.8,1243.2 1248.3,1241.4 1245,1238.2C1241.4,1234.8 1239.4,1230.1 1239.5,1225.2L1239.8,1110.3L1239.8,1108.7C1239.2,1108.7 1238.8,1108.8 1238.5,1108.8C1238.1,1110 1237.3,1113.1 1237.3,1119.7L1236.9,1227.1C1236.9,1236.6 1229.4,1244.5 1219.9,1245C1202.4,1245.9 1193.8,1246.4 1176.1,1247.5L1175,1247.5C1170.4,1247.5 1166,1245.8 1162.7,1242.6C1159.1,1239.2 1157,1234.4 1157.1,1229.5L1157.5,1113C1157.5,1112.1 1157.5,1111.3 1157.4,1110.6C1156.8,1110.6 1156.4,1110.7 1156,1110.8C1155.6,1112 1154.7,1115.3 1154.7,1122.5L1154.3,1232.1C1154.3,1241.5 1147,1249.3 1137.6,1250C1120,1251.2 1111.4,1251.8 1094,1253.2L1092.5,1253.2Z"
                          style="fill:rgb(30,30,30);fill-rule:nonzero;"/>
                </g>
            </g>
            <g>
                <g>
                    <path d="M1337.5,1296.3C1332.9,1296.3 1328.4,1294.5 1325,1291.3C1321.5,1287.9 1319.5,1283.2 1319.5,1278.3C1319.5,1278.3 1319.9,1101 1319.9,1098C1319.9,1085.8 1320,1073.1 1319.6,1060.9C1319.5,1056.1 1321.3,1051.4 1324.6,1047.9C1327.9,1044.4 1332.6,1042.4 1337.4,1042.4C1354.3,1042.3 1362.7,1042.2 1379.6,1042.1L1379.7,1042.1C1383.7,1042.1 1387.4,1043.4 1390.5,1045.7C1399.6,1041.5 1410.2,1039.2 1421.7,1039.2L1422,1039.2C1440.1,1039.3 1456,1045.7 1467.8,1057.8C1482.7,1072.9 1490.6,1096 1490.2,1122.8L1490.2,1150.3C1491,1178.5 1483,1202.9 1467.7,1219.1C1454.9,1232.7 1437.3,1240.1 1416.8,1240.6L1414.4,1240.6C1408.9,1240.6 1403.9,1240.1 1399.5,1239.2L1399.4,1276.7C1399.4,1286.4 1391.7,1294.3 1382,1294.6C1364.4,1295.1 1355.8,1295.4 1338.1,1296.2C1338,1296.3 1337.8,1296.3 1337.5,1296.3ZM1401.7,1174L1402.9,1174C1404.7,1173.9 1405.3,1173.4 1405.9,1172.8C1408.4,1170 1410.6,1162.4 1410.1,1153.3L1410.1,1125.4C1410.1,1125 1410.1,1124.5 1410.2,1124.1C1410.8,1116.5 1408.8,1109.4 1406.5,1107C1406.1,1106.6 1406,1106.4 1404.9,1106.4L1404.8,1106.4C1403.3,1106.4 1403,1106.7 1402.8,1106.9C1401.4,1108.3 1398.8,1114.2 1398.9,1126.3L1398.9,1150.9C1398.6,1167.6 1400.6,1172.5 1401.7,1174Z"
                          style="fill:rgb(30,30,30);fill-rule:nonzero;"/>
                </g>
            </g>
            <g>
                <g>
                    <path d="M1551.3,1237.1C1538.7,1237 1530.6,1237 1520.5,1237L1507.4,1237C1502.6,1237 1498.1,1235.1 1494.7,1231.7C1491.3,1228.3 1489.4,1223.8 1489.4,1219L1489.4,1107.5L1486.1,1107.5C1481.3,1107.5 1476.8,1105.6 1473.4,1102.2C1470,1098.8 1468.1,1094.2 1468.1,1089.5L1468.1,1059.6C1468.1,1049.7 1476.1,1041.7 1486,1041.6L1489.4,1041.6C1491,1006.6 1518.7,982.5 1557.7,982.5L1559.2,982.5C1563.2,982.6 1573.3,982.9 1580.3,984.5C1588.4,986.4 1594.2,993.6 1594.2,1002L1594.2,1032.5C1594.2,1037.5 1592.1,1042.2 1588.5,1045.6C1592.6,1048.9 1595.3,1054 1595.3,1059.6L1595.3,1089.6C1595.3,1094.4 1593.4,1099 1590,1102.3C1586.6,1105.7 1582.1,1107.5 1577.3,1107.5L1569.2,1107.5L1569.3,1219C1569.3,1223.8 1567.4,1228.4 1564,1231.7C1560.6,1235 1556.1,1236.9 1551.3,1236.9C1551.4,1237.1 1551.4,1237.1 1551.3,1237.1Z"
                          style="fill:rgb(30,30,30);fill-rule:nonzero;"/>
                </g>
            </g>
            <g>
                <g>
                    <path d="M1769.6,1242.7L1768.8,1242.7C1751.5,1241.9 1743,1241.6 1725.4,1240.9C1717.3,1240.6 1710.3,1234.8 1708.5,1226.9C1706.2,1216.8 1703.8,1206.6 1701.4,1196.6C1701.3,1196.9 1701.2,1197.3 1701.1,1197.6C1698.6,1206.9 1696,1216.4 1693.6,1225.8C1691.6,1233.8 1684.4,1239.3 1676.2,1239.3L1675.7,1239.3C1661,1238.9 1646.1,1238.5 1631.3,1238.2C1623.2,1238 1616.2,1232.5 1614.2,1224.7C1600.6,1171.2 1587,1117.7 1573.4,1064.3C1572,1058.9 1573.2,1053.2 1576.6,1048.8C1580,1044.4 1585.2,1041.9 1590.8,1041.9L1590.9,1041.9C1606.5,1042 1622.1,1042 1637.7,1042.1C1646.4,1042.2 1653.8,1048.4 1655.3,1056.9C1656.7,1064.6 1658.1,1072.2 1659.5,1079.9C1659.6,1080.7 1659.8,1081.4 1659.9,1082.2C1661.9,1073.7 1664,1065.1 1665.8,1056.7C1667.6,1048.4 1674.9,1042.5 1683.4,1042.5L1683.5,1042.5C1699.5,1042.6 1707.4,1042.7 1723.4,1042.9C1731.8,1043 1738.9,1048.8 1740.8,1057C1742.7,1065.5 1744.7,1074.1 1746.8,1082.6C1747.7,1077.6 1751.3,1058.2 1751.3,1058.2C1752.9,1049.7 1760.3,1043.5 1769,1043.5L1769.2,1043.5C1786.8,1043.7 1795.5,1043.8 1813.1,1044.1C1818.6,1044.2 1823.8,1046.8 1827.1,1051.2C1830.4,1055.6 1831.6,1061.3 1830.2,1066.6C1816.2,1119.8 1801.7,1174.7 1787,1229.7C1784.8,1237.2 1777.7,1242.7 1769.6,1242.7Z"
                          style="fill:rgb(30,30,30);fill-rule:nonzero;"/>
                </g>
            </g>
            <g>
                <g>
                    <path d="M1949.6,1253.8C1949.1,1253.8 1948.7,1253.8 1948.2,1253.7C1932.2,1252.5 1924.4,1251.9 1908.3,1250.7C1904.6,1250.4 1901.1,1249 1898.3,1246.8C1890.9,1249.5 1882.5,1250.9 1873,1250.9C1871.1,1250.9 1869.1,1250.8 1867.1,1250.7C1829.4,1248.7 1800.9,1218.1 1802,1180.9L1802,1180.2C1801.6,1162.6 1807.5,1147.1 1819,1135.3C1822.3,1131.9 1826,1128.9 1829.8,1126.4C1828.6,1126.4 1827.3,1126.3 1826,1126.3C1816.3,1126 1808.5,1118.1 1808.5,1108.4L1808.5,1107.6C1808.6,1086 1818.1,1067.7 1835.3,1056.1C1852.5,1044.6 1872.7,1042.1 1886.7,1042.1L1888.8,1042.1C1902.9,1042.3 1923.3,1045.2 1940.3,1057.3C1957.4,1069.5 1966.2,1087.5 1965.9,1109.4L1966.2,1198.6C1966.2,1208 1966.8,1227.4 1967.4,1233.9C1967.9,1239.2 1966.1,1244.5 1962.4,1248.3C1959.1,1251.9 1954.4,1253.8 1949.6,1253.8ZM1887.8,1174.8C1883.7,1175.3 1881.1,1176.8 1880.7,1177.4C1880.7,1177.5 1880.6,1177.9 1880.6,1178.7L1880.6,1180.8C1880.6,1183.7 1881.1,1184.2 1884.4,1184.6L1885.2,1184.6C1886.3,1183.5 1887.6,1179.8 1887.8,1174.8Z"
                          style="fill:rgb(30,30,30);fill-rule:nonzero;"/>
                </g>
            </g>
            <g>
                <g>
                    <path d="M2053.7,1327.3C2049.6,1327.3 2045.3,1327.1 2040.9,1326.6C2002.3,1322.6 1962.6,1298.6 1961.2,1253.9L1961.2,1253.1C1961.2,1248 1963.3,1243.2 1967,1239.8C1970.3,1236.7 1974.7,1235 1979.2,1235C1979.7,1235 1980.3,1235 1980.8,1235.1C1981.2,1235.1 1981.6,1235.2 1982,1235.2C1967.5,1218.8 1959.5,1194.5 1959.7,1164.7L1959.6,1137C1959.2,1107.6 1968.4,1081.2 1984.8,1064.6C1997.4,1051.9 2013.8,1045.1 2032.5,1045.1L2035.1,1045.1C2046.8,1045.5 2056,1047.8 2063.2,1051.2C2065.8,1049.8 2068.7,1049 2071.8,1049L2072.3,1049C2088.6,1049.4 2096.7,1049.7 2112.9,1050.1C2117.7,1050.2 2122.2,1052.3 2125.5,1055.7C2128.8,1059.1 2130.5,1063.8 2130.4,1068.6C2129.9,1083.9 2129.7,1100.4 2129.8,1119L2130.1,1237.3C2130.8,1267.6 2123.5,1290.9 2108.2,1306.5C2094.9,1320.4 2076.6,1327.3 2053.7,1327.3ZM2044.3,1258.3C2045,1258.5 2045.8,1258.6 2046.7,1258.7C2047.1,1258.7 2047.4,1258.8 2047.8,1258.8L2048.1,1258.8C2048.3,1258.6 2048.5,1258.2 2048.7,1257.8C2047.3,1258 2045.8,1258.2 2044.3,1258.3ZM2045.7,1115.9C2045.2,1115.9 2044.9,1116 2044.8,1116C2043.5,1116.9 2039.9,1124 2040.1,1139.2C2040.1,1139.3 2040.2,1165.6 2040.2,1165.6C2040.1,1176.4 2041.6,1182.5 2042.9,1185.6C2044.5,1189.7 2045.7,1189.8 2047,1189.9L2047.6,1189.9C2049,1188 2051.8,1180.4 2050.8,1163.8L2050.8,1162.8L2050.7,1140.3L2050.7,1139.4C2051.6,1120.3 2047.4,1116.1 2047.3,1116.1C2047.2,1116.1 2046.8,1115.9 2045.9,1115.9L2045.7,1115.9Z"
                          style="fill:rgb(30,30,30);fill-rule:nonzero;"/>
                </g>
            </g>
            <g>
                <g>
                    <path d="M2216.7,1284C2213,1284 2209.2,1283.7 2205.4,1283.3C2154,1276.6 2123.2,1235.4 2123,1173.2L2122.9,1147.5C2122.9,1123.1 2129.4,1100.1 2141.2,1082.9C2155.7,1061.7 2177.9,1050 2203.5,1050C2205.3,1050 2207.1,1050.1 2208.9,1050.2C2260,1053.3 2291.4,1092.8 2290.8,1153.5L2290.8,1157.5C2290.7,1166.8 2290.6,1178.3 2290.4,1184.3C2290.2,1189.2 2288,1193.9 2284.3,1197.2C2284.2,1197.3 2284,1197.4 2283.9,1197.6C2287.4,1200.9 2289.6,1205.6 2289.6,1210.8L2289.6,1211.7C2288.4,1253.6 2257.7,1284 2216.7,1284ZM2202.4,1195.6C2202.7,1200.2 2203.5,1204.4 2204.8,1207.4C2206.6,1211.8 2208.4,1212 2209.9,1212.2C2210.2,1212.2 2210.6,1212.3 2210.9,1212.3C2211.2,1211.3 2211.6,1209.5 2211.8,1206.4C2211.8,1202.9 2212.8,1199.6 2214.7,1196.7C2210.5,1196.3 2206.4,1195.9 2202.4,1195.6ZM2211.6,1128.6C2211,1125.4 2210,1123.1 2209,1122C2208.7,1121.7 2208.5,1121.4 2207.1,1121.4L2206.8,1121.4C2206.3,1121.4 2206,1121.5 2205.9,1121.5C2205.2,1122 2204,1124.3 2203.3,1128.1C2206.1,1128.2 2208.9,1128.4 2211.6,1128.6Z"
                          style="fill:rgb(30,30,30);fill-rule:nonzero;"/>
                </g>
            </g>
        </g>
        <g transform="matrix(0.0757396,6.45173e-21,-1.29035e-20,0.0757396,1386.48,924.168)">
            <g>
                <path d="M761.6,1033.9C782.3,1033.5 803.1,1033.2 823.8,1032.9C883.1,1030.3 905.6,1074.4 905.1,1127.7C905.1,1143.3 905,1151 905,1166.6C905.1,1223.8 883.9,1273.4 821.5,1281.3C801.5,1284 781.5,1286.8 761.5,1289.8C761.6,1204.4 761.6,1119.1 761.6,1033.9ZM805.9,1247.4C811.6,1246.7 814.5,1246.4 820.2,1245.7C857.2,1242.3 859.9,1201.4 859.6,1172.2C859.6,1155 859.6,1146.3 859.7,1129.1C860.3,1102 855.9,1066.5 820.5,1069.2C814.7,1069.4 811.8,1069.5 806.1,1069.7C806,1128.9 806,1188.1 805.9,1247.4Z"
                      style="fill:white;fill-rule:nonzero;"/>
                <path d="M1055.5,1200.9C1055.5,1210.3 1055.9,1230.7 1056.6,1238.1C1040.6,1239.4 1032.6,1240.1 1016.6,1241.6C1015.8,1238.3 1014.6,1231 1014.5,1227.1C1006,1240.6 990.3,1246.9 975.3,1248.4C946.4,1251.4 926.4,1227.4 927.7,1199.7L927.7,1198.3C928.1,1156.9 964.2,1136.9 1001.7,1135.4C1005.8,1135.2 1009.4,1135 1012.5,1135.1C1012.5,1127 1012.5,1123 1012.6,1114.9C1012.6,1103.4 1011.2,1093.5 995.2,1094.1C980,1094.7 977.6,1104.3 976.9,1115.7L976.9,1116.9C960,1117.7 951.6,1118.1 934.7,1118.9L934.7,1118C935,1082 963.4,1064.1 996.9,1063.3C1027.3,1062.6 1056.9,1076 1056,1110.6C1055.7,1140.7 1055.6,1170.8 1055.5,1200.9ZM1013.2,1164C1009.9,1163.8 1006,1164.2 1002.3,1164.3C986,1164.8 969.4,1174.1 970.2,1192.6L970.2,1193.8C970.2,1205.1 975.4,1215.2 989.9,1214C1009.7,1212.4 1014.1,1192.3 1013.1,1175.5C1013.2,1170.9 1013.2,1168.6 1013.2,1164Z"
                      style="fill:white;fill-rule:nonzero;"/>
                <path d="M1092.9,1114.6C1093,1097.7 1093.3,1080.8 1092.7,1064C1109.5,1063.7 1117.9,1063.5 1134.7,1063.2C1135.6,1067.2 1136,1073.7 1136.1,1079.2C1144.8,1065.9 1160.4,1059.9 1175.8,1059.8C1194.8,1059.7 1206.6,1066.6 1212.1,1079.6C1222.2,1065.4 1239.6,1059.1 1256.1,1058.7C1282.3,1058 1302.4,1076.2 1301.3,1103.6C1301.2,1143.5 1301.1,1183.4 1301,1223.3C1283.5,1224 1274.8,1224.4 1257.4,1225.2C1257.5,1186.9 1257.6,1148.6 1257.7,1110.3C1257.7,1098.1 1253.3,1090.4 1240,1090.7C1224,1091 1219.3,1101.2 1219.2,1119.7C1219.1,1155.5 1219,1191.3 1218.8,1227.1C1201.2,1228 1192.4,1228.6 1174.8,1229.6C1174.9,1190.8 1175.1,1152 1175.2,1113.1C1175.3,1098.2 1169.6,1092.4 1157.5,1092.7C1141.5,1093.1 1136.6,1102.9 1136.5,1122.5C1136.4,1159 1136.2,1195.6 1136.1,1232.1C1118.6,1233.3 1109.8,1233.9 1092.3,1235.3C1092.6,1195 1092.8,1154.8 1092.9,1114.6Z"
                      style="fill:white;fill-rule:nonzero;"/>
                <path d="M1381.7,1209C1381.7,1231.6 1381.6,1254.2 1381.6,1276.8C1364,1277.3 1355.1,1277.7 1337.5,1278.4C1337.6,1221.2 1337.8,1164.1 1337.9,1106.9C1337.9,1091.4 1338.1,1075.9 1337.6,1060.4C1354.5,1060.3 1362.9,1060.2 1379.8,1060.1C1380.5,1063.4 1381.2,1071 1381.2,1076.7C1389.5,1062.5 1406.5,1057.2 1421.9,1057.2C1458.4,1057.3 1472.8,1090.3 1472.3,1122.7L1472.3,1150.6C1473.5,1188 1456.8,1221.7 1416.4,1222.7C1397.8,1223.2 1387.2,1216.8 1381.7,1209ZM1428,1152.1L1428,1125.3C1429.2,1109.8 1423.6,1088.1 1404.6,1088.3C1384.5,1088.5 1380.8,1110.2 1381,1126.4L1381,1150.4C1380.7,1166.8 1381.1,1193 1403.7,1192C1423.7,1191.1 1429.1,1168.8 1428,1152.1Z"
                      style="fill:white;fill-rule:nonzero;"/>
                <path d="M1507.3,1219L1507.3,1089.5L1486,1089.5L1486,1059.6L1507.2,1059.6L1507.2,1044.6C1507.3,1015.1 1530.9,1000.1 1558.8,1000.5C1565.2,1000.6 1572.2,1001.1 1576.1,1002.1L1576.1,1032.6C1572.8,1032.1 1570.1,1031.9 1567,1031.9C1554.3,1031.9 1551.1,1037.5 1551.1,1048L1551.1,1059.7C1561.5,1059.7 1566.7,1059.7 1577.1,1059.8L1577.1,1089.8C1566.7,1089.8 1561.5,1089.7 1551.1,1089.7C1551.1,1132.9 1551.1,1176.1 1551.2,1219.2C1533.8,1219 1525,1219 1507.3,1219Z"
                      style="fill:white;fill-rule:nonzero;"/>
                <path d="M1637.7,1059.9C1644.7,1099 1652.5,1138.1 1657.1,1177.5L1657.7,1177.5C1663.4,1138.1 1675,1099.1 1683.4,1060.2C1699.3,1060.3 1707.3,1060.4 1723.2,1060.6C1732,1100.1 1743.5,1139.7 1748.6,1179.9L1749,1179.9C1754.3,1140.1 1761.7,1100.6 1768.9,1061.1C1786.4,1061.3 1795.2,1061.4 1812.7,1061.7C1798.4,1116.1 1784.1,1170.4 1769.6,1224.7C1752.2,1223.9 1743.5,1223.5 1726,1222.9C1717.9,1186.7 1708,1150.6 1702.1,1113.9L1701.7,1113.9C1696.6,1150.1 1685.1,1185.9 1676.2,1221.2C1661.4,1220.8 1646.5,1220.4 1631.7,1220.1C1618.1,1166.6 1604.5,1113.1 1590.9,1059.7C1606.5,1059.8 1622.1,1059.8 1637.7,1059.9Z"
                      style="fill:white;fill-rule:nonzero;"/>
                <path d="M1948.3,1198.8C1948.3,1208.1 1948.9,1228.4 1949.6,1235.8C1933.6,1234.6 1925.6,1234 1909.6,1232.8C1908.8,1229.5 1907.5,1222.3 1907.4,1218.5C1900.2,1228.4 1888.3,1233.9 1868.2,1232.8C1840.8,1231.3 1819.1,1209 1820.1,1181.2L1820.1,1180C1819.2,1139.4 1860.6,1127.8 1893.9,1129.2C1898,1129.4 1901.6,1129.5 1904.7,1129.8C1904.7,1122 1904.7,1118.1 1904.6,1110.4C1904.6,1099.3 1903,1089.8 1887,1089.3C1871.8,1088.9 1869.5,1097.8 1868.8,1108.4L1868.8,1109.5C1851.9,1109 1843.4,1108.7 1826.5,1108.3L1826.5,1107.5C1826.6,1072.7 1857.8,1059.6 1888.5,1060.1C1919,1060.6 1948.5,1074.8 1947.9,1109.3C1948.1,1139.2 1948.2,1169 1948.3,1198.8ZM1905.6,1157.7C1902.3,1157.2 1898.3,1157.1 1894.7,1156.8C1879.9,1155.6 1861.6,1161.8 1862.7,1179.8L1862.7,1180.9C1862.7,1191.4 1868.7,1201.1 1882.6,1202.5C1901.8,1204.4 1906.8,1183.7 1905.6,1168.7C1905.7,1164.3 1905.7,1162.1 1905.6,1157.7Z"
                      style="fill:white;fill-rule:nonzero;"/>
                <path d="M2112.1,1237.7C2113.3,1285.1 2092.5,1313.8 2042.8,1308.7C2011.9,1305.5 1980.3,1287.6 1979.2,1253.3L1979.2,1253C1996.7,1254.6 2005.5,1255.4 2023,1257.1L2023,1257.4C2023.5,1262.2 2025.5,1274.3 2044.6,1276.5C2066.9,1279.1 2069.7,1254.2 2068.6,1237.6L2068.6,1225.1C2062.2,1236.9 2048.9,1241.9 2030.9,1240.4C1991,1237.1 1977.4,1199.9 1977.7,1164.8C1977.7,1153.6 1977.6,1148.1 1977.6,1136.9C1977.1,1101.6 1993.3,1061.9 2034.5,1063.2C2058,1064 2066.8,1074.1 2070,1082.7C2070.2,1077.4 2071.1,1070.8 2071.8,1067.1C2088,1067.5 2096.2,1067.8 2112.4,1068.2C2111.9,1085.2 2111.7,1102.2 2111.8,1119.2C2111.9,1158.7 2112,1198.2 2112.1,1237.7ZM2022.2,1139.4C2022.2,1149.9 2022.3,1155.2 2022.3,1165.7C2022.2,1182.1 2025.1,1206.1 2045.4,1207.9C2068.8,1210 2069.7,1179 2068.8,1162.8C2068.8,1153.8 2068.8,1149.3 2068.7,1140.3C2069.5,1123.8 2067.9,1098.7 2046.6,1097.9C2025.4,1097.2 2022,1123.1 2022.2,1139.4Z"
                      style="fill:white;fill-rule:nonzero;"/>
                <path d="M2184.3,1176L2184.3,1187.8C2183.6,1204.5 2187.4,1227.6 2207.7,1230C2226.6,1232.2 2229.1,1216.2 2229.6,1206.7L2229.6,1206.3C2246.5,1208 2254.9,1208.9 2271.7,1210.7L2271.7,1211.1C2270.5,1246.7 2243.5,1270.1 2207.7,1265.4C2159.2,1259.1 2141.1,1217.6 2141,1173.1C2141,1162.8 2141,1157.7 2140.9,1147.4C2140.9,1107 2161.7,1065.3 2207.8,1068.1C2255.1,1070.9 2273.2,1110.1 2272.8,1153.3C2272.7,1162.3 2272.6,1177 2272.4,1183.7C2243.1,1181.1 2213.7,1178.5 2184.3,1176ZM2230.2,1147.9L2230.2,1139.6C2230.9,1124.4 2226.7,1104.2 2207.9,1103.4C2189.4,1102.6 2184.2,1121.9 2184.8,1136.7L2184.8,1144.8C2200,1145.7 2215.1,1146.8 2230.2,1147.9Z"
                      style="fill:white;fill-rule:nonzero;"/>
            </g>
        </g>
    </g>
</svg>
