<?xml version="1.0" encoding="UTF-8" standalone="no"?>
<!DOCTYPE svg PUBLIC "-//W3C//DTD SVG 1.1//EN" "http://www.w3.org/Graphics/SVG/1.1/DTD/svg11.dtd">
<svg width="100%" height="100%" viewBox="0 0 128 128" version="1.1" xmlns="http://www.w3.org/2000/svg" xmlns:xlink="http://www.w3.org/1999/xlink" xml:space="preserve" xmlns:serif="http://www.serif.com/" style="fill-rule:evenodd;clip-rule:evenodd;stroke-linejoin:round;stroke-miterlimit:2;">
    <g transform="matrix(1,0,0,1,-1436.1,-905.893)">
        <g transform="matrix(0.131121,1.11693e-20,-2.23386e-20,0.131121,1297.94,874.509)">
            <g>
                <path d="M1789.6,891.3L1170,891.3L1127.1,592.4L1789.6,592.4L1789.6,891.3Z" style="fill:white;fill-rule:nonzero;"/>
                <path d="M1795.4,897.2L1164.9,897.2L1120.3,586.5L1795.4,586.5L1795.4,897.2ZM1185.97,885.5L1783.8,885.5L1783.8,598.2L1146.72,599.407L1185.97,885.5Z" style="fill-rule:nonzero;"/>
            </g>
            <g>
                <path d="M2024.1,910.4L1789.6,892.2L1789.6,868.7L2024.1,886.8L2024.1,910.4Z" style="fill:white;fill-rule:nonzero;"/>
                <path d="M2029.9,916.7L1783.7,897.7L1783.7,862.4L2029.9,881.4L2029.9,916.7ZM1795.4,886.8L2018.2,904L2018.2,892.2L1795.4,875L1795.4,886.8Z" style="fill-rule:nonzero;"/>
            </g>
            <g>
                <g transform="matrix(13.2031,-1.12468e-18,2.24937e-18,13.2031,1053.7,468.2)">
                    <rect x="70.4" y="30.228" width="0.757" height="8.157"/>
                </g>
                <path d="M2004.9,986.7L1971.5,986.7L1971.5,855.6L2004.9,855.6L2004.9,986.7ZM1983.2,975L1993.2,975L1993.2,867.3L1983.2,867.3L1983.2,975Z" style="fill-rule:nonzero;"/>
            </g>
            <g>
                <rect x="1059.6" y="568.8" width="771.8" height="23.6"/>
                <path d="M1837.2,598.2L1053.7,598.2L1053.7,562.9L1837.2,562.9L1837.2,598.2ZM1065.4,586.5L1825.5,586.5L1825.5,574.6L1065.4,574.6L1065.4,586.5Z" style="fill-rule:nonzero;"/>
            </g>
            <g>
                <rect x="1106" y="891.3" width="918" height="23.6"/>
                <g transform="matrix(13.2031,-1.12468e-18,2.24937e-18,13.2031,1053.7,468.2)">
                    <rect x="4.408" y="32.492" width="68.643" height="0.901"/>
                </g>
                <path d="M2029.9,920.8L1100.1,920.8L1100.1,885.5L2029.9,885.5L2029.9,920.8ZM1111.9,909.1L2018.2,909.1L2018.2,897.2L1111.9,897.2L1111.9,909.1Z" style="fill-rule:nonzero;"/>
            </g>
            <g>
                <rect x="1386.6" y="914.9" width="21.7" height="28.6" style="fill:white;"/>
                <path d="M1414.2,949.4L1380.8,949.4L1380.8,909.1L1414.2,909.1L1414.2,949.4ZM1392.5,937.6L1402.5,937.6L1402.5,920.7L1392.5,920.7L1392.5,937.6Z" style="fill:rgb(30,30,30);fill-rule:nonzero;"/>
            </g>
            <g>
                <g>
                    <rect x="1131.4" y="620.1" width="658.2" height="4.4"/>
                </g>
                <g>
                    <rect x="1135.9" y="650" width="653.7" height="4.4"/>
                </g>
                <g>
                    <rect x="1140.2" y="679.9" width="649.3" height="4.4"/>
                </g>
                <g>
                    <rect x="1144.4" y="709.8" width="645.2" height="4.4"/>
                </g>
                <g>
                    <rect x="1149.1" y="739.7" width="640.5" height="4.4"/>
                </g>
                <g>
                    <rect x="1153.3" y="769.5" width="636.3" height="4.4"/>
                </g>
                <g>
                    <rect x="1156.3" y="799.4" width="633.2" height="4.4"/>
                </g>
                <g>
                    <rect x="1162.1" y="829.3" width="627.5" height="4.4"/>
                </g>
                <g>
                    <rect x="1164.4" y="859.2" width="625.2" height="4.4"/>
                </g>
            </g>
            <g>
                <path d="M1332.9,474C1317.7,474 1305.4,476.9 1305.4,480.4L1305.4,568.8L1360.4,568.8L1360.4,480.4C1360.4,476.9 1348.1,474 1332.9,474Z" style="fill:white;fill-rule:nonzero;"/>
                <path d="M1366.4,574.6L1299.6,574.6L1299.6,480.4C1299.6,469.7 1320.5,468.2 1333,468.2C1345.5,468.2 1366.4,469.8 1366.4,480.4L1366.4,574.6ZM1311.2,562.9L1354.6,562.9L1354.6,482.6C1351.6,481.4 1344,479.8 1332.9,479.8C1321.8,479.8 1314.2,481.4 1311.2,482.6L1311.2,562.9Z" style="fill-rule:nonzero;"/>
            </g>
            <g>
                <rect x="1767.8" y="592.4" width="21.7" height="298.3"/>
                <path d="M1795.4,896.5L1762,896.5L1762,586.5L1795.4,586.5L1795.4,896.5ZM1773.7,884.8L1783.7,884.8L1783.7,598.2L1773.7,598.2L1773.7,884.8Z" style="fill-rule:nonzero;"/>
            </g>
            <g>
                <rect x="1483.6" y="664.5" width="194.5" height="94.9" style="fill:white;"/>
                <path d="M1683.9,765.3L1477.7,765.3L1477.7,658.6L1683.9,658.6L1683.9,765.3ZM1489.4,753.5L1672.2,753.5L1672.2,670.3L1489.4,670.3L1489.4,753.5Z" style="fill-rule:nonzero;"/>
            </g>
            <g>
                <g>
                    <rect x="1498.8" y="679.7" width="164.1" height="64.5"/>
                </g>
                <g>
                    <path d="M1668.7,750.1L1492.9,750.1L1492.9,673.9L1668.7,673.9L1668.7,750.1ZM1504.6,738.4L1657,738.4L1657,685.6L1504.6,685.6L1504.6,738.4Z" style="fill-rule:nonzero;"/>
                </g>
            </g>
        </g>
        <g id="XMLID_1617_" transform="matrix(0.131121,1.11693e-20,-2.23386e-20,0.131121,1297.94,874.509)">
            <g id="XMLID_1_">
                <path d="M1370.5,975.9C1363,975.9 1355.6,974.4 1348.7,971.5C1342,968.7 1336.1,964.6 1330.9,959.5C1325.7,954.4 1321.7,948.4 1318.9,941.7C1316,934.8 1314.5,927.5 1314.5,919.9C1314.5,912.4 1316,905 1318.9,898.1C1321.7,891.4 1325.8,885.5 1330.9,880.3C1336,875.1 1342,871.1 1348.7,868.3C1355.6,865.4 1362.9,863.9 1370.5,863.9C1378,863.9 1385.4,865.4 1392.3,868.3C1399,871.1 1404.9,875.2 1410.1,880.3C1415.3,885.4 1419.3,891.4 1422.1,898.1C1425,905 1426.5,912.3 1426.5,919.9C1426.5,927.4 1425,934.8 1422.1,941.7C1419.3,948.4 1415.2,954.3 1410.1,959.5C1405,964.7 1399,968.7 1392.3,971.5C1385.4,974.4 1378.1,975.9 1370.5,975.9Z" style="fill:white;fill-rule:nonzero;"/>
            </g>
            <g id="XMLID_1640_">
                <path d="M1370.5,980.3C1362.4,980.3 1354.5,978.7 1347,975.6C1339.8,972.6 1333.4,968.2 1327.8,962.7C1322.2,957.2 1317.9,950.7 1314.9,943.5C1311.8,936.1 1310.2,928.2 1310.2,920C1310.2,911.8 1311.8,904 1314.9,896.5C1317.9,889.3 1322.3,882.9 1327.8,877.3C1333.3,871.8 1339.8,867.4 1347,864.4C1354.4,861.3 1362.3,859.7 1370.5,859.7C1378.7,859.7 1386.5,861.3 1394,864.4C1401.2,867.4 1407.6,871.8 1413.2,877.3C1418.7,882.8 1423.1,889.3 1426.1,896.5C1429.2,903.9 1430.8,911.8 1430.8,920C1430.8,928.2 1429.2,936 1426.1,943.5C1423.1,950.7 1418.7,957.1 1413.2,962.7C1407.7,968.2 1401.2,972.6 1394,975.6C1386.6,978.7 1378.7,980.3 1370.5,980.3ZM1370.5,876.9C1346.7,876.9 1327.4,896.2 1327.4,920C1327.4,943.8 1346.7,963.1 1370.5,963.1C1394.3,963.1 1413.6,943.8 1413.6,920C1413.6,896.2 1394.3,876.9 1370.5,876.9Z" style="fill-rule:nonzero;"/>
            </g>
            <g id="XMLID_1621_">
                <g>
                    <path d="M1370.7,914.5C1368,914.5 1365.8,916.7 1365.8,919.4C1365.8,922.1 1368,924.3 1370.7,924.3C1373.4,924.3 1375.6,922.1 1375.6,919.4C1375.6,916.7 1373.4,914.5 1370.7,914.5ZM1378.9,923.6L1397.6,941.8C1402.7,935.7 1405.7,927.9 1405.7,919.4L1405.7,918L1379.6,921.8C1379.8,921 1379.9,920.2 1379.9,919.4C1379.9,916.9 1378.9,914.6 1377.3,912.9L1400.4,900.8C1395.7,893.4 1388.4,887.8 1379.6,885.5L1375.2,911.3C1373.8,910.5 1372.3,910.1 1370.6,910.1C1368.9,910.1 1367.2,910.6 1365.8,911.4L1361.4,885.5C1352.7,887.8 1345.3,893.5 1340.7,900.9L1363.8,913C1362.2,914.7 1361.3,916.9 1361.3,919.4C1361.3,920.3 1361.4,921.2 1361.7,922.1L1335.6,918.3L1335.6,919.5C1335.6,928.1 1338.7,936 1343.9,942.1L1362.5,923.9C1364,926.6 1366.8,928.5 1370.1,928.7L1358.4,952.3C1362.2,953.7 1366.4,954.5 1370.7,954.5C1375.1,954.5 1379.3,953.7 1383.2,952.2L1371.6,928.7C1374.7,928.3 1377.4,926.4 1378.9,923.6ZM1370.7,926.1C1367,926.1 1364,923.1 1364,919.4C1364,915.7 1367,912.7 1370.7,912.7C1374.4,912.7 1377.4,915.7 1377.4,919.4C1377.3,923.1 1374.3,926.1 1370.7,926.1Z" style="fill:rgb(30,30,30);fill-rule:nonzero;"/>
                    <clipPath id="_clip1">
                        <path d="M1370.7,914.5C1368,914.5 1365.8,916.7 1365.8,919.4C1365.8,922.1 1368,924.3 1370.7,924.3C1373.4,924.3 1375.6,922.1 1375.6,919.4C1375.6,916.7 1373.4,914.5 1370.7,914.5ZM1378.9,923.6L1397.6,941.8C1402.7,935.7 1405.7,927.9 1405.7,919.4L1405.7,918L1379.6,921.8C1379.8,921 1379.9,920.2 1379.9,919.4C1379.9,916.9 1378.9,914.6 1377.3,912.9L1400.4,900.8C1395.7,893.4 1388.4,887.8 1379.6,885.5L1375.2,911.3C1373.8,910.5 1372.3,910.1 1370.6,910.1C1368.9,910.1 1367.2,910.6 1365.8,911.4L1361.4,885.5C1352.7,887.8 1345.3,893.5 1340.7,900.9L1363.8,913C1362.2,914.7 1361.3,916.9 1361.3,919.4C1361.3,920.3 1361.4,921.2 1361.7,922.1L1335.6,918.3L1335.6,919.5C1335.6,928.1 1338.7,936 1343.9,942.1L1362.5,923.9C1364,926.6 1366.8,928.5 1370.1,928.7L1358.4,952.3C1362.2,953.7 1366.4,954.5 1370.7,954.5C1375.1,954.5 1379.3,953.7 1383.2,952.2L1371.6,928.7C1374.7,928.3 1377.4,926.4 1378.9,923.6ZM1370.7,926.1C1367,926.1 1364,923.1 1364,919.4C1364,915.7 1367,912.7 1370.7,912.7C1374.4,912.7 1377.4,915.7 1377.4,919.4C1377.3,923.1 1374.3,926.1 1370.7,926.1Z" clip-rule="nonzero"/>
                    </clipPath>
                    <g clip-path="url(#_clip1)">
                        <g transform="matrix(13.2031,-1.12468e-18,2.24937e-18,13.2031,1053.7,468.2)">
                            <path d="M24.631,34.492C24.517,34.704 24.312,34.848 24.078,34.878L24.956,36.658C24.661,36.772 24.343,36.832 24.009,36.832C23.684,36.832 23.366,36.772 23.078,36.666L23.964,34.878C23.714,34.863 23.502,34.719 23.388,34.515L21.98,35.893C21.586,35.431 21.351,34.833 21.351,34.181L21.351,34.09L23.328,34.378C23.305,34.31 23.298,34.242 23.298,34.174C23.298,33.984 23.366,33.818 23.487,33.689L21.737,32.773C22.086,32.212 22.646,31.78 23.305,31.606L23.638,33.568C23.744,33.507 23.873,33.469 24.002,33.469C24.131,33.469 24.244,33.5 24.35,33.56L24.684,31.606C25.35,31.78 25.903,32.204 26.259,32.765L24.509,33.681C24.631,33.81 24.706,33.984 24.706,34.174C24.706,34.234 24.699,34.295 24.684,34.355L26.66,34.068L26.66,34.174C26.66,34.817 26.433,35.408 26.047,35.87L24.631,34.492ZM24.009,34.681C24.282,34.681 24.509,34.454 24.517,34.174C24.517,33.893 24.29,33.666 24.009,33.666C23.729,33.666 23.502,33.893 23.502,34.174C23.502,34.454 23.729,34.681 24.009,34.681Z"/>
                        </g>
                    </g>
                </g>
            </g>
            <g id="XMLID_1618_">
                <path d="M1370.5,959.8C1359.8,959.8 1349.8,955.6 1342.2,948.1C1334.6,940.5 1330.5,930.5 1330.5,919.8C1330.5,909.1 1334.7,899.1 1342.2,891.5C1349.7,883.9 1359.8,879.8 1370.5,879.8C1381.2,879.8 1391.2,884 1398.8,891.5C1406.4,899 1410.5,909.1 1410.5,919.8C1410.5,930.5 1406.3,940.5 1398.8,948.1C1391.3,955.6 1381.2,959.8 1370.5,959.8ZM1370.5,881.5C1349.4,881.5 1332.2,898.7 1332.2,919.8C1332.2,940.9 1349.4,958.1 1370.5,958.1C1391.6,958.1 1408.8,940.9 1408.8,919.8C1408.8,898.7 1391.6,881.5 1370.5,881.5Z" style="fill:rgb(30,30,30);fill-rule:nonzero;"/>
            </g>
        </g>
    </g>
</svg>
